<?xml version="1.0" standalone="no"?>
<!DOCTYPE svg PUBLIC "-//W3C//DTD SVG 20010904//EN"
 "http://www.w3.org/TR/2001/REC-SVG-20010904/DTD/svg10.dtd">
<svg version="1.0" xmlns="http://www.w3.org/2000/svg"
 width="800.000000pt" height="800.000000pt" viewBox="0 0 800.000000 800.000000"
 preserveAspectRatio="xMidYMid meet">
<metadata>
Created by potrace 1.14, written by Peter Selinger 2001-2017
</metadata>
<g transform="translate(0.000000,800.000000) scale(0.100000,-0.100000)"
fill="#000000" stroke="none">
<path d="M1390 6269 c-34 -14 -68 -18 -208 -28 -67 -5 -128 -13 -135 -18 -6
-6 -33 -16 -60 -23 -26 -7 -50 -17 -53 -21 -3 -5 -14 -9 -25 -9 -10 0 -19 -4
-19 -9 0 -5 -22 -31 -50 -57 -54 -51 -85 -122 -78 -175 3 -16 2 -29 -2 -29 -3
0 -6 -26 -7 -57 0 -32 -1 -69 -2 -83 -1 -14 -1 -34 0 -45 2 -35 -9 -189 -16
-215 -3 -14 -8 -50 -9 -80 -2 -30 -8 -86 -14 -125 -6 -38 -13 -106 -17 -150
-3 -44 -8 -100 -10 -125 -12 -107 -15 -206 -7 -218 5 -7 5 -38 0 -70 -5 -31
-9 -66 -9 -77 0 -10 -5 -25 -10 -31 -7 -9 -7 -19 -1 -31 7 -12 7 -25 0 -37
-10 -18 -18 -104 -24 -264 -2 -51 -5 -96 -8 -100 -4 -6 -7 -62 -6 -94 1 -35 0
-80 -5 -148 -2 -41 -7 -118 -9 -170 -2 -52 -8 -108 -14 -125 -5 -16 -6 -39 -2
-50 4 -11 3 -23 -2 -26 -7 -4 -6 -14 1 -27 8 -14 8 -29 1 -47 -5 -14 -9 -36
-9 -48 2 -53 -10 -248 -16 -257 -3 -5 -3 -36 0 -67 12 -120 12 -134 4 -139 -5
-3 -9 -56 -9 -119 0 -63 -4 -116 -10 -120 -5 -3 -7 -24 -5 -46 2 -23 0 -52 -6
-65 -5 -14 -11 -39 -14 -56 -3 -17 -9 -36 -13 -42 -4 -6 -8 -24 -9 -41 0 -16
-8 -57 -17 -90 -9 -33 -19 -91 -21 -130 -3 -38 -8 -80 -10 -92 -3 -12 4 -38
16 -57 12 -20 18 -36 14 -36 -3 0 3 -12 14 -26 15 -19 19 -34 14 -56 -5 -26 0
-35 34 -66 22 -21 43 -45 46 -55 4 -9 20 -20 37 -23 16 -4 30 -10 30 -14 0
-14 59 -32 83 -26 13 3 32 -1 45 -9 14 -11 33 -13 60 -9 22 3 42 2 45 -2 3 -5
47 -7 99 -4 51 3 107 2 123 -3 54 -15 78 -17 231 -22 83 -3 171 -1 197 4 26 4
66 5 89 1 26 -5 48 -4 55 2 8 6 18 6 30 0 20 -11 112 -4 129 9 6 5 26 4 45 -1
27 -7 341 -6 449 2 14 1 62 -1 107 -5 51 -4 84 -3 88 3 4 6 13 7 23 1 18 -10
322 -8 338 2 5 3 40 0 77 -7 44 -9 85 -10 119 -5 29 5 69 6 90 3 20 -4 51 -1
68 5 23 8 36 7 50 -2 15 -9 27 -9 49 -1 17 7 35 8 42 3 8 -5 22 -6 31 -3 10 3
23 2 30 -3 21 -13 759 -24 794 -12 11 4 52 1 90 -6 58 -11 129 -12 307 -6 9 0
27 0 40 0 12 -1 54 0 92 3 47 3 79 0 97 -9 19 -9 34 -10 52 -3 15 5 37 5 55 0
17 -5 103 -7 191 -5 98 2 162 0 166 -6 3 -6 20 -9 38 -8 17 2 37 0 43 -4 7 -4
34 -7 60 -7 26 1 56 1 66 1 35 -2 48 -2 75 -1 40 0 113 -1 147 -3 70 -4 399
14 415 23 10 5 40 11 66 13 45 3 49 5 71 46 22 43 108 130 128 131 6 0 34 21
62 48 176 164 217 200 256 222 24 14 68 44 98 67 30 22 76 53 102 68 69 38
117 79 162 140 11 15 52 42 90 60 39 18 86 49 105 70 19 21 50 52 69 69 130
121 138 131 145 176 3 25 6 52 5 60 -1 90 -7 172 -13 202 -4 20 -9 51 -10 68
-1 19 -11 40 -23 49 -11 9 -22 23 -25 31 -4 12 -25 15 -94 17 -49 0 -101 1
-116 2 -16 0 -45 0 -65 0 -98 -2 -372 9 -382 15 -6 4 -11 2 -11 -4 0 -6 -19
-11 -47 -11 -27 0 -90 -2 -142 -5 -51 -3 -97 -2 -101 3 -5 4 -4 31 0 59 8 50
21 162 22 194 0 8 4 20 9 26 4 5 11 50 14 100 6 98 9 121 25 209 8 47 22 294
21 395 0 8 0 31 0 50 -1 19 -1 45 -1 58 0 12 -1 32 -1 45 0 25 8 211 15 327 8
125 13 159 25 174 7 8 13 48 15 89 2 40 6 79 10 85 4 6 -2 20 -13 31 -12 12
-16 23 -10 26 5 4 9 23 8 43 -2 20 2 46 8 57 7 12 14 55 17 97 2 42 10 86 16
98 14 27 20 91 21 250 1 222 0 238 -11 245 -5 3 -10 15 -10 26 0 12 -13 33
-30 47 -16 15 -30 33 -30 40 0 24 -53 88 -89 109 -20 11 -64 24 -99 28 -35 4
-84 13 -110 19 -28 8 -59 9 -76 5 -15 -4 -71 -6 -125 -3 -105 4 -305 5 -791 2
-305 -2 -594 5 -732 17 -37 4 -102 8 -145 9 -43 2 -95 7 -115 11 -20 4 -45 4
-55 0 -33 -14 -47 -15 -103 -3 -67 14 -411 13 -494 -1 -37 -7 -74 -7 -99 -1
-23 5 -48 5 -56 0 -15 -7 -104 -11 -313 -14 -54 0 -98 -3 -98 -6 0 -13 -393 6
-420 19 -14 7 -293 15 -425 12 -33 -1 -100 -2 -150 -2 -49 0 -108 0 -130 0
-371 -2 -541 3 -575 15 -8 2 -26 0 -40 -5z m65 -81 c11 0 29 1 40 1 11 1 61
-1 110 -4 50 -4 124 -7 165 -9 41 -2 80 -4 85 -5 22 -6 101 1 109 9 5 5 20 4
34 -1 13 -5 33 -7 42 -4 10 3 78 8 152 10 73 3 138 5 143 6 6 0 26 -2 45 -5
19 -4 87 -6 150 -6 173 1 173 1 184 -10 5 -5 34 -10 64 -10 29 0 95 -5 146
-11 66 -8 102 -9 123 -1 17 5 36 6 44 2 7 -5 18 -5 25 1 8 6 20 6 37 -2 20 -9
31 -8 54 3 19 10 37 12 52 6 12 -4 41 -4 65 2 48 11 148 13 334 9 41 -1 78 4
86 10 14 12 46 5 46 -10 0 -6 8 -5 19 0 23 13 179 22 185 12 3 -4 35 -4 72 0
36 4 82 2 101 -3 19 -5 41 -7 49 -4 7 3 16 1 20 -5 3 -6 13 -7 23 -4 21 9 77
10 121 2 19 -4 52 -3 72 2 20 5 40 5 45 0 4 -4 78 -11 163 -14 85 -3 200 -8
255 -11 219 -9 606 -11 611 -2 3 5 15 6 27 2 33 -11 168 -6 183 7 9 7 19 7 35
-1 13 -7 59 -11 118 -10 53 1 141 1 196 0 55 -1 115 -2 133 -1 62 1 77 1 117
-2 22 -1 46 -6 53 -11 8 -5 31 -8 53 -8 44 1 86 -33 118 -97 11 -20 32 -49 47
-66 16 -16 30 -41 31 -55 5 -46 3 -73 -6 -84 -10 -12 -8 -66 2 -83 10 -16 0
-184 -13 -217 -5 -15 -10 -39 -10 -54 0 -30 -34 -92 -50 -92 -6 0 -9 4 -6 9 3
5 0 13 -7 19 -13 10 -77 12 -77 2 0 -11 -44 -4 -47 7 -2 5 11 14 29 20 l33 9
-37 18 c-42 20 -44 24 -23 52 8 10 15 27 15 37 0 13 6 16 24 11 19 -4 25 -1
30 20 4 15 2 35 -4 46 -7 12 -7 21 0 25 5 3 10 14 10 23 0 19 36 46 49 37 17
-10 -3 40 -25 64 -16 18 -20 29 -13 37 13 15 -3 26 -25 18 -9 -3 -15 -14 -14
-23 2 -9 -3 -15 -9 -14 -8 2 -13 -7 -13 -21 0 -15 -7 -26 -20 -29 -11 -3 -20
-12 -20 -21 0 -9 -13 -29 -29 -44 -54 -50 -58 -51 -70 -39 -8 8 -11 8 -11 -1
0 -16 -18 -15 -36 3 -13 13 -13 17 2 40 15 23 15 25 1 19 -9 -3 -19 -14 -22
-24 -3 -10 -12 -23 -20 -30 -11 -9 -12 -7 -9 7 4 13 -1 19 -15 20 -11 1 -23
-3 -26 -8 -4 -5 -11 -7 -16 -4 -5 4 -18 0 -30 -8 -16 -12 -25 -12 -44 -3 -32
14 -32 33 0 48 27 12 41 41 29 60 -5 8 -2 9 9 5 11 -4 17 -1 17 8 0 9 -9 15
-22 15 -27 0 -16 12 25 26 l32 12 -29 11 c-16 7 -36 9 -44 6 -8 -3 -21 3 -28
12 -13 17 -13 17 -14 1 0 -22 -16 -23 -24 -2 -3 9 -12 14 -20 11 -7 -3 -25 1
-39 8 -21 11 -28 11 -37 0 -6 -7 -10 -17 -9 -21 4 -21 -2 -28 -12 -14 -9 13
-10 13 -6 -1 3 -9 0 -22 -6 -28 -8 -8 -8 -11 1 -11 7 0 12 -7 12 -16 0 -10 -8
-15 -22 -14 -43 4 -57 0 -78 -22 -11 -12 -23 -18 -27 -14 -4 4 -1 11 7 16 8 5
12 12 8 15 -3 4 -15 -2 -25 -12 -11 -11 -27 -20 -36 -20 -28 0 -15 49 20 72
l29 21 -33 32 c-32 31 -42 52 -24 52 5 0 11 6 14 14 4 10 0 12 -14 9 -14 -4
-19 0 -19 15 0 14 -5 19 -18 15 -11 -3 -25 7 -40 26 -26 36 -47 39 -62 11 -7
-12 -16 -17 -27 -13 -11 4 -14 2 -9 -5 6 -11 -31 -38 -46 -34 -5 1 -8 -3 -8
-10 0 -6 -3 -8 -6 -5 -8 8 -61 -21 -92 -50 -12 -13 -32 -23 -42 -23 -16 0 -20
-7 -20 -31 0 -17 -4 -39 -10 -49 -12 -22 -60 -36 -70 -20 -4 7 -10 -2 -14 -21
-5 -25 -9 -30 -18 -21 -17 17 -25 15 -31 -8 -3 -11 -1 -18 4 -14 5 3 9 -2 9
-11 0 -12 -5 -15 -22 -9 -20 6 -21 5 -9 -9 16 -20 8 -47 -15 -47 -10 0 -32
-12 -51 -26 -19 -14 -40 -27 -46 -28 -7 -1 -18 -5 -25 -10 -7 -4 -26 -9 -43
-11 -28 -4 -30 -2 -25 20 3 13 1 27 -5 31 -7 4 1 12 20 20 26 11 31 17 25 38
-5 21 -2 25 28 31 46 9 78 26 78 42 0 7 4 13 9 13 10 0 66 51 66 61 0 4 11 17
25 29 25 22 27 26 29 68 1 19 5 22 21 17 15 -5 20 -2 20 12 0 14 -2 15 -9 4
-6 -9 -11 -10 -15 -2 -4 6 -12 9 -17 6 -5 -4 -9 0 -9 8 0 7 17 18 38 23 l37
10 -37 18 c-39 19 -75 18 -71 -2 2 -7 -4 -12 -12 -12 -8 0 -15 5 -15 10 0 6
-13 10 -29 10 -20 0 -30 6 -34 20 -6 25 -27 26 -54 1 -32 -30 -82 -53 -103
-46 -22 7 -28 -10 -7 -19 10 -5 10 -7 -1 -12 -6 -3 -12 -13 -12 -21 0 -9 -3
-13 -7 -10 -3 4 -16 -12 -27 -35 -20 -39 -24 -42 -63 -43 -24 -1 -43 3 -43 7
0 5 -12 13 -26 18 -18 7 -24 15 -20 26 3 9 6 25 6 35 0 11 4 18 9 15 5 -4 7 4
3 16 -3 13 -1 19 6 15 5 -4 13 -1 15 5 3 7 4 1 4 -14 -2 -33 17 -38 22 -6 1
12 12 35 22 50 16 22 18 32 9 48 -11 21 -60 29 -60 9 0 -6 -6 -9 -14 -6 -9 3
-28 -7 -44 -24 -17 -18 -33 -26 -36 -20 -4 5 -1 13 4 16 7 5 5 12 -7 20 -10 7
-22 11 -26 8 -5 -3 -3 -10 4 -15 11 -7 9 -8 -4 -4 -10 3 -23 6 -28 6 -5 0 -9
7 -9 15 0 8 -8 15 -17 15 -9 0 -25 7 -35 16 -12 12 -22 14 -30 7 -7 -5 -30 -9
-51 -8 -31 1 -42 -3 -54 -22 -8 -12 -19 -20 -24 -17 -5 3 -9 -2 -9 -10 0 -8
-9 -20 -21 -26 -16 -9 -18 -14 -9 -26 10 -11 8 -15 -6 -21 -34 -13 -45 -36
-26 -57 9 -11 11 -16 4 -12 -17 10 -52 -3 -52 -20 0 -8 -6 -13 -12 -12 -7 2
-13 -4 -13 -12 0 -19 -40 -41 -60 -34 -8 4 -18 -1 -21 -10 -5 -12 -10 -13 -26
-5 -14 8 -17 14 -9 23 6 7 8 15 5 19 -3 3 8 15 25 28 17 13 31 31 31 41 0 10
3 17 8 17 25 -4 33 2 27 22 -5 16 0 28 20 45 16 13 24 24 19 24 -5 0 -4 4 2 8
21 13 26 49 8 56 -9 3 -20 4 -25 0 -13 -8 -11 -32 4 -37 8 -4 9 -6 0 -6 -6 -1
-19 6 -28 15 -15 15 -17 15 -34 0 -10 -9 -24 -16 -32 -16 -12 0 -12 -2 0 -9
11 -7 8 -17 -18 -50 -31 -39 -71 -55 -71 -28 0 6 -5 4 -11 -7 -6 -10 -19 -26
-29 -36 -16 -16 -19 -16 -31 -1 -8 9 -13 24 -11 35 2 10 -1 23 -6 28 -5 5 -7
27 -5 49 6 38 -3 49 -23 29 -15 -15 -44 -2 -37 16 3 9 -1 14 -13 14 -9 0 -14
-3 -11 -7 13 -12 -14 -31 -36 -26 -39 9 -77 28 -77 38 -1 5 -6 1 -13 -10 -10
-16 -23 -20 -72 -20 -43 0 -59 -4 -57 -12 1 -8 -8 -13 -21 -13 -13 0 -34 -9
-46 -19 -12 -11 -30 -17 -41 -14 -12 3 -20 0 -20 -7 0 -7 -8 -10 -19 -7 -12 3
-27 -3 -37 -14 -9 -10 -21 -16 -27 -12 -6 4 -8 0 -5 -9 4 -8 2 -21 -2 -29 -6
-8 -4 -17 3 -22 8 -6 4 -7 -10 -4 -26 6 -31 -8 -8 -17 8 -3 15 -10 15 -16 0
-7 -6 -8 -17 -2 -23 13 -83 -34 -83 -66 0 -17 -9 -27 -35 -38 -20 -8 -39 -12
-44 -10 -7 5 -76 -64 -72 -71 4 -9 -1 -24 -15 -37 -14 -15 -14 -17 0 -22 9 -3
16 -13 16 -21 0 -12 -3 -12 -22 1 -27 19 -38 20 -38 3 0 -7 -9 -13 -20 -14
-15 -1 -22 6 -27 27 -3 17 -9 27 -14 24 -5 -3 -9 2 -9 11 0 8 7 18 15 21 8 4
15 12 15 20 0 8 4 14 9 14 5 0 14 15 20 33 6 18 25 48 42 67 18 19 38 49 45
66 8 18 22 39 32 46 11 8 18 25 18 43 0 23 5 29 17 27 20 -3 21 7 3 31 -8 10
-26 17 -42 17 -16 0 -44 2 -62 6 -29 6 -37 2 -71 -35 -21 -22 -45 -41 -54 -41
-10 0 -17 -6 -17 -13 0 -18 -34 -49 -43 -40 -4 3 -7 -2 -7 -12 0 -14 -3 -15
-15 -5 -12 10 -13 16 -4 26 8 10 8 14 1 14 -7 0 -9 7 -5 17 5 13 2 15 -18 9
-46 -14 -54 -12 -51 12 3 21 2 22 -17 10 -18 -11 -18 -14 -6 -28 13 -14 11
-16 -22 -17 -19 -1 -39 -6 -43 -13 -5 -8 -10 -6 -20 5 -15 17 -40 20 -40 4 0
-8 -5 -8 -15 1 -14 11 -33 10 -87 -6 -10 -3 -18 -1 -18 5 0 6 7 11 15 11 8 0
15 5 15 10 0 6 -7 10 -15 10 -9 0 -18 12 -21 30 -4 17 -10 30 -15 30 -5 0 -9
6 -9 14 0 19 -51 27 -70 12 -8 -7 -23 -16 -32 -19 -10 -4 -18 -16 -18 -28 0
-20 -1 -21 -24 -5 -15 10 -27 12 -31 6 -9 -14 -49 -12 -63 3 -8 7 -40 12 -78
13 -52 0 -64 -3 -59 -14 4 -10 0 -12 -11 -8 -12 4 -15 2 -10 -9 3 -9 0 -15 -9
-15 -16 0 -16 -20 -1 -31 14 -11 -3 -29 -21 -22 -11 4 -14 3 -9 -5 5 -8 1 -9
-15 -3 -13 4 -25 14 -27 21 -3 7 0 10 7 6 18 -12 13 2 -10 25 -16 16 -18 23
-9 29 20 12 -6 50 -35 50 -14 0 -25 4 -25 9 0 5 -16 12 -35 15 -19 4 -35 11
-35 16 0 6 -11 10 -25 10 -14 0 -43 9 -64 20 -40 20 -53 18 -44 -6 3 -9 -2
-14 -16 -14 -12 0 -21 4 -21 9 0 10 -18 9 -35 0 -5 -4 -20 -5 -32 -4 -13 1
-23 -2 -23 -6 0 -3 -9 -9 -20 -12 -18 -5 -19 -8 -9 -31 15 -32 5 -45 -21 -28
-11 6 -22 8 -25 3 -3 -5 -21 -8 -40 -7 -19 2 -35 -1 -35 -5 0 -5 -13 -9 -28
-9 -15 0 -33 -5 -40 -12 -10 -10 -15 -5 -24 20 -11 27 -17 32 -45 32 -33 0
-44 -13 -20 -24 6 -3 1 -3 -12 0 -14 4 -27 1 -33 -7 -7 -11 -11 -11 -15 -1 -7
18 -24 15 -49 -9 -15 -14 -38 -21 -71 -23 -27 -1 -53 -5 -59 -8 -11 -6 -63 -3
-92 6 -30 10 -36 -11 -8 -29 23 -15 23 -17 9 -46 -8 -17 -21 -32 -29 -35 -52
-16 -50 -14 -31 -29 27 -20 14 -73 -20 -81 -20 -5 -24 -12 -20 -30 3 -16 0
-24 -9 -24 -8 0 -14 -4 -14 -10 0 -5 4 -10 10 -10 5 0 9 -11 8 -25 -2 -17 -8
-25 -21 -25 -14 0 -17 -5 -11 -22 4 -13 12 -26 18 -30 6 -4 7 -8 3 -8 -19 0
22 -28 51 -35 21 -4 32 -13 32 -24 0 -9 8 -26 18 -37 18 -19 18 -20 0 -38 -10
-11 -18 -15 -18 -9 0 14 -45 9 -46 -5 -1 -7 -2 -17 -3 -23 0 -5 -5 -8 -11 -4
-5 3 -18 -3 -28 -13 -11 -11 -26 -22 -33 -24 -12 -4 -12 -9 -1 -27 10 -17 10
-21 0 -21 -10 0 -9 -3 1 -9 10 -7 12 -21 8 -53 -4 -30 -1 -53 9 -73 9 -18 11
-31 5 -33 -5 -2 -7 -10 -4 -19 3 -8 2 -18 -4 -22 -5 -3 -22 -23 -37 -43 -16
-21 -35 -38 -42 -38 -17 0 -18 -17 -1 -23 9 -3 8 -9 -4 -23 -10 -13 -15 -34
-13 -63 3 -48 11 -62 23 -42 5 7 35 17 67 21 33 4 53 8 46 9 -10 1 -10 5 0 20
7 11 16 17 20 15 5 -3 6 -9 3 -14 -3 -5 -1 -11 5 -15 5 -3 10 2 10 11 0 18 27
54 42 54 4 0 17 9 28 20 24 24 75 28 66 5 -4 -11 2 -15 20 -15 30 0 44 -29 20
-42 -13 -8 -15 -13 -5 -24 9 -11 8 -14 -5 -14 -10 0 -14 -4 -11 -10 8 -13 -31
-13 -55 0 -33 18 -118 -38 -120 -77 0 -7 -6 -16 -14 -20 -7 -4 -17 -18 -20
-30 -9 -30 17 -31 37 -3 11 15 22 18 51 15 26 -4 38 -1 42 10 4 8 15 15 25 15
24 0 25 26 2 39 -17 10 -17 10 0 11 9 0 17 -5 17 -11 0 -6 9 -8 20 -4 23 7 26
-5 8 -24 -11 -10 -9 -11 6 -5 13 5 17 4 12 -4 -3 -6 2 -15 11 -21 16 -9 16
-10 -5 -11 -17 0 -24 -7 -28 -30 -4 -16 -13 -30 -20 -30 -8 0 -14 -4 -14 -10
0 -5 -8 -6 -17 -3 -12 5 -15 2 -10 -9 4 -12 -6 -22 -36 -36 -24 -12 -46 -16
-52 -12 -6 5 -23 11 -39 14 -39 7 -44 15 -22 31 17 13 17 15 1 37 -13 17 -16
18 -11 4 5 -15 2 -17 -18 -12 -19 5 -28 1 -36 -14 -7 -12 -21 -20 -37 -20
l-26 0 24 -21 c16 -15 20 -23 12 -26 -7 -3 -13 -15 -13 -28 0 -13 -7 -30 -15
-39 -15 -15 -11 -46 6 -46 5 0 4 -9 -3 -21 -11 -17 -10 -22 2 -32 19 -15 14
-60 -9 -81 -18 -16 -17 -18 10 -46 30 -30 37 -50 18 -50 -8 0 -10 -12 -6 -35
3 -19 1 -37 -4 -40 -5 -4 -18 -26 -29 -51 -11 -24 -24 -44 -29 -44 -9 0 -9
-76 0 -83 25 -20 75 -34 86 -25 7 6 10 14 7 19 -3 5 3 6 12 2 11 -4 13 -8 6
-11 -7 -2 -9 -8 -6 -13 3 -6 11 -6 20 2 7 6 11 15 9 20 -9 13 51 39 90 39 33
0 35 1 21 16 -23 23 -20 43 9 50 23 6 30 15 26 37 0 4 3 7 9 7 5 0 10 -6 10
-14 0 -8 8 -16 18 -18 25 -5 23 -59 -3 -78 -11 -8 -23 -14 -27 -13 -3 1 -21
-14 -38 -34 -28 -32 -34 -34 -42 -20 -5 9 -14 17 -19 17 -6 0 -8 -4 -4 -9 3
-6 0 -13 -7 -18 -7 -4 -19 -20 -27 -36 -8 -15 -31 -37 -50 -49 -36 -22 -42
-24 -61 -27 -5 0 -16 -13 -24 -28 -8 -16 -18 -28 -23 -28 -4 0 -8 -12 -8 -27
-1 -16 3 -28 6 -28 15 0 1 -55 -15 -58 -9 -2 -16 -13 -16 -28 0 -14 -7 -27
-15 -30 -8 -4 -16 -16 -16 -28 -1 -16 -2 -17 -6 -4 -3 14 -7 15 -17 6 -14 -14
-9 -61 6 -52 6 4 8 -6 7 -23 -2 -18 3 -37 13 -47 10 -9 15 -23 12 -30 -3 -8 1
-29 9 -48 15 -35 12 -83 -4 -94 -5 -3 -9 -13 -9 -22 0 -10 -8 -25 -18 -33 -20
-17 -65 -32 -57 -19 3 5 0 12 -6 15 -7 5 -8 37 -4 99 4 50 6 105 6 123 -1 17
7 39 16 48 13 14 14 18 3 25 -11 7 -11 11 -1 23 9 12 9 17 0 22 -8 6 -9 31 -5
89 8 93 15 190 21 291 2 39 5 72 6 75 4 13 10 198 8 228 -4 40 11 223 22 268
13 54 19 136 19 259 0 44 4 86 9 94 5 7 6 25 2 40 -4 14 -1 80 6 146 8 66 13
136 13 155 0 19 7 69 15 110 8 41 15 91 15 110 0 19 2 60 4 90 3 30 7 98 10
150 2 52 9 106 14 120 5 14 6 32 2 40 -6 12 -7 90 -1 122 3 15 115 114 144
127 18 7 41 18 52 22 24 10 84 18 180 24 100 5 153 13 173 24 9 6 24 8 32 4 8
-3 24 -5 35 -5z m562 -237 c2 -9 9 -24 14 -33 7 -14 3 -21 -21 -33 -17 -9 -30
-24 -30 -34 0 -10 -7 -21 -15 -25 -8 -3 -19 -16 -24 -29 -7 -17 -18 -23 -47
-25 -21 -2 -43 -7 -49 -11 -6 -5 -15 -3 -22 4 -15 16 -2 28 20 19 9 -3 17 3
22 18 6 19 8 20 12 6 4 -16 6 -16 19 -4 18 19 18 35 -1 42 -8 4 -15 11 -15 18
1 16 42 62 64 70 10 3 16 9 13 13 -4 3 -2 12 3 19 14 15 50 6 57 -15z m2547
14 c-4 -8 -8 -15 -10 -15 -2 0 -4 7 -4 15 0 8 4 15 10 15 5 0 7 -7 4 -15z
m-2144 -5 c0 -5 -5 -10 -11 -10 -5 0 -7 5 -4 10 3 6 8 10 11 10 2 0 4 -4 4
-10z m1105 0 c3 -5 1 -10 -4 -10 -6 0 -11 5 -11 10 0 6 2 10 4 10 3 0 8 -4 11
-10z m2135 6 c0 -2 -7 -7 -16 -10 -8 -3 -12 -2 -9 4 6 10 25 14 25 6z m-3980
-17 c0 -6 4 -8 9 -5 5 3 12 -1 15 -10 4 -9 13 -14 21 -10 8 3 15 1 15 -4 0 -9
-14 -14 -33 -11 -4 1 -5 -10 -1 -24 4 -15 2 -25 -5 -25 -6 0 -11 -7 -11 -16 0
-20 -40 -72 -41 -53 0 8 -5 4 -11 -8 -6 -12 -21 -24 -34 -27 -13 -4 -24 -13
-24 -22 0 -8 -8 -18 -17 -21 -10 -4 -29 -14 -43 -24 -45 -31 -67 -33 -72 -5
-4 21 0 27 23 35 20 7 27 15 23 25 -3 9 -2 16 2 16 5 0 15 13 22 30 7 16 28
44 45 62 17 18 30 36 29 41 -1 4 5 7 13 7 11 0 13 7 9 28 -6 27 -4 29 30 30
20 1 36 -3 36 -9z m2890 -19 c0 -5 -4 -10 -10 -10 -5 0 -10 5 -10 10 0 6 5 10
10 10 6 0 10 -4 10 -10z m33 -15 c-3 -9 -8 -14 -10 -11 -3 3 -2 9 2 15 9 16
15 13 8 -4z m-599 -20 c18 -13 18 -15 2 -15 -9 0 -16 -6 -14 -12 5 -26 -57
-108 -81 -108 -6 0 -11 -12 -11 -26 0 -31 -35 -84 -56 -84 -8 0 -14 -5 -14
-10 0 -16 -51 -33 -63 -21 -5 5 -15 7 -22 5 -7 -3 -15 6 -19 22 -8 29 0 46 9
22 4 -10 14 -14 26 -11 21 6 62 57 53 66 -10 10 16 47 33 47 9 0 13 3 10 6 -4
4 2 14 13 24 10 9 22 28 25 43 4 15 13 27 21 27 8 0 14 5 14 10 0 6 10 15 23
20 29 12 29 12 51 -5z m-1307 -7 c-2 -7 -12 -12 -21 -12 -22 2 -20 -19 4 -41
23 -21 18 -35 -13 -35 -12 0 -34 -6 -48 -14 -24 -12 -25 -12 -21 10 2 13 11
24 18 24 8 0 13 3 13 8 -5 30 4 49 29 59 37 15 44 15 39 1z m1882 -2 c9 -11 8
-15 -5 -20 -22 -8 -24 -8 -24 8 0 8 -6 17 -12 19 -7 3 -3 6 8 6 12 1 27 -5 33
-13z m-1611 -8 c16 -16 15 -29 -2 -22 -16 6 -30 34 -18 34 5 0 13 -5 20 -12z
m-1653 -18 c3 -5 1 -10 -4 -10 -6 0 -11 5 -11 10 0 6 2 10 4 10 3 0 8 -4 11
-10z m2445 6 c0 -3 -4 -8 -10 -11 -5 -3 -10 -1 -10 4 0 6 5 11 10 11 6 0 10
-2 10 -4z m781 -6 c19 -11 26 -40 12 -54 -5 -4 -9 -12 -9 -17 -1 -5 -2 -13 -3
-19 0 -5 -8 -7 -15 -4 -9 3 -30 -9 -50 -30 -20 -19 -36 -31 -36 -25 0 6 -7 6
-20 -1 -22 -12 -18 -33 4 -24 11 4 11 -2 -2 -29 -10 -19 -19 -33 -20 -32 -9 9
-19 75 -11 75 5 0 9 7 9 15 0 8 6 12 13 10 9 -4 13 7 13 35 2 46 4 50 31 54
10 2 20 11 22 22 6 32 29 41 62 24z m-1511 -20 c0 -5 -4 -10 -10 -10 -5 0 -10
5 -10 10 0 6 5 10 10 10 6 0 10 -4 10 -10z m-26 -16 c3 -8 -1 -22 -9 -31 -12
-12 -19 -13 -30 -3 -20 16 -19 41 0 34 8 -4 15 -1 15 5 0 17 17 13 24 -5z
m-431 -36 c4 -13 0 -18 -14 -18 -11 0 -16 5 -13 14 3 7 -2 16 -11 20 -9 3 -14
10 -10 16 8 13 42 -9 48 -32z m3423 34 c6 -4 11 -14 11 -23 0 -14 -6 -15 -33
-6 -30 9 -32 11 -16 23 20 16 23 16 38 6z m-4706 -38 c0 -8 -6 -14 -14 -14 -9
0 -12 7 -9 20 6 22 23 18 23 -6z m1347 -26 c-3 -8 -6 -5 -6 6 -1 11 2 17 5 13
3 -3 4 -12 1 -19z m-67 -21 c14 -23 14 -23 -28 -32 -31 -6 -33 -6 -23 13 8 15
7 20 -2 19 -6 0 -23 1 -37 2 -41 2 -2 20 41 18 24 -1 41 -8 49 -20z m-1336 -2
c-4 -8 -8 -15 -10 -15 -2 0 -4 7 -4 15 0 8 4 15 10 15 5 0 7 -7 4 -15z m2471
5 c-3 -5 -14 -10 -23 -10 -15 0 -15 2 -2 10 20 13 33 13 25 0z m1413 -8 c5
-17 -23 -15 -38 3 -11 13 -9 15 11 12 12 -2 25 -9 27 -15z m879 -16 c-1 -6 4
-10 11 -8 8 1 11 -2 7 -9 -4 -6 -17 -8 -29 -5 -21 5 -21 5 2 -14 12 -10 21
-26 21 -37 -1 -16 -2 -16 -6 0 -5 20 -23 22 -48 3 -21 -15 -55 -10 -55 9 0 24
12 45 22 39 11 -7 50 25 43 36 -3 5 4 6 15 3 10 -3 18 -10 17 -17z m-4667 4
c0 -5 -4 -10 -10 -10 -5 0 -10 5 -10 10 0 6 5 10 10 10 6 0 10 -4 10 -10z
m4413 -13 c-3 -4 3 -14 13 -21 12 -9 14 -15 6 -20 -7 -4 -12 -16 -12 -27 0
-14 7 -19 25 -19 14 0 25 -3 25 -7 0 -12 57 -13 85 -3 20 8 25 6 25 -7 0 -15
-26 -42 -42 -43 -4 0 -14 7 -23 16 -13 13 -18 14 -31 4 -12 -11 -17 -10 -29 6
-8 11 -14 14 -15 7 0 -7 -5 -13 -11 -13 -6 0 -8 8 -5 18 6 15 5 15 -8 -1 -8
-11 -17 -14 -20 -8 -9 13 -36 3 -36 -14 0 -8 -8 -11 -19 -8 -15 4 -18 9 -11
22 5 9 11 28 15 44 3 15 12 27 20 27 8 0 15 5 15 11 0 6 -7 9 -15 6 -12 -5
-12 -2 -3 18 7 17 18 24 34 23 12 -1 20 -6 17 -11z m-1581 -21 c-11 -38 -54
-67 -94 -62 -18 2 -32 9 -30 15 1 6 -5 14 -13 17 -19 8 -19 24 0 24 8 0 15 -3
15 -8 0 -4 10 -13 21 -21 19 -11 21 -11 15 4 -4 10 -2 15 6 13 6 -2 22 6 36
19 33 31 52 30 44 -1z m-2962 4 c0 -5 -4 -10 -9 -10 -6 0 -13 5 -16 10 -3 6 1
10 9 10 9 0 16 -4 16 -10z m1048 -32 c-29 -22 -52 -24 -44 -2 3 9 6 19 6 24 0
13 33 18 48 6 11 -8 9 -13 -10 -28z m1429 30 c-2 -7 -10 -12 -16 -10 -6 1 -11
-3 -11 -10 0 -6 -2 -9 -5 -6 -10 9 7 38 22 38 8 0 13 -6 10 -12z m-1507 -8 c0
-5 -2 -10 -4 -10 -3 0 -8 5 -11 10 -3 6 -1 10 4 10 6 0 11 -4 11 -10z m-850
-26 c0 -8 -4 -12 -10 -9 -5 3 -10 10 -10 16 0 5 5 9 10 9 6 0 10 -7 10 -16z
m203 -9 c3 -16 0 -24 -7 -22 -14 4 -21 47 -8 47 5 0 12 -11 15 -25z m2107 -5
c0 -5 -4 -10 -10 -10 -5 0 -10 -8 -10 -19 0 -14 6 -17 25 -13 15 2 25 0 25 -7
0 -6 7 -11 16 -11 9 0 12 5 8 13 -5 8 -3 8 9 -2 14 -11 18 -11 23 3 5 13 9 14
20 5 8 -6 21 -9 29 -5 17 6 21 -19 5 -29 -5 -3 -10 -17 -10 -30 0 -16 -9 -28
-27 -37 -16 -7 -28 -20 -28 -28 0 -16 -33 -16 -49 0 -12 12 3 32 20 26 8 -3
14 0 14 7 0 12 -44 37 -67 37 -7 0 -13 8 -13 18 0 13 -2 14 -9 3 -6 -9 -10
-10 -16 -2 -9 15 -35 -4 -35 -25 0 -17 -5 -17 -31 -4 -23 13 -25 30 -4 30 8 0
18 12 21 26 5 19 9 22 15 12 6 -10 11 -9 23 7 9 11 16 26 16 33 0 14 40 17 40
2z m-1493 -38 c-3 -24 17 -27 21 -2 4 23 21 27 23 5 1 -8 2 -21 3 -27 1 -7 -5
-21 -13 -30 -12 -13 -17 -15 -23 -5 -6 9 -12 8 -22 -5 -16 -22 -36 -23 -36 -3
0 8 3 15 8 15 4 0 6 21 3 46 -3 44 -2 45 18 35 11 -6 20 -19 18 -29z m-840 6
c-3 -8 -6 -5 -6 6 -1 11 2 17 5 13 3 -3 4 -12 1 -19z m1119 -5 c-8 -8 -36 5
-36 17 0 7 6 7 21 0 11 -7 18 -14 15 -17z m1964 8 c0 -5 -7 -11 -15 -15 -9 -3
-15 0 -15 9 0 8 7 15 15 15 8 0 15 -4 15 -9z m1631 -31 c28 0 39 4 39 15 0 8
9 15 20 15 11 0 20 -4 20 -10 0 -5 -5 -10 -10 -10 -7 0 -7 -6 0 -20 6 -11 17
-20 26 -20 8 0 17 -7 20 -15 8 -20 20 -19 42 3 10 9 29 23 41 30 20 12 26 11
43 -5 20 -18 21 -18 13 6 -6 18 -4 22 6 15 8 -5 19 -9 24 -9 6 0 11 -10 13
-22 2 -13 10 -23 17 -23 8 0 17 -9 20 -20 3 -11 11 -20 16 -20 5 0 9 -3 9 -8
0 -4 -24 -7 -52 -7 -29 0 -59 -3 -66 -8 -6 -5 -25 -7 -41 -4 -20 4 -31 2 -35
-8 -9 -24 -26 -17 -26 10 0 27 -10 31 -41 15 -16 -9 -19 -7 -19 8 0 20 -46 37
-74 26 -7 -3 -16 2 -19 10 -8 21 -34 20 -45 -1 -7 -12 -10 -3 -9 34 1 42 4 48
15 37 7 -8 31 -14 53 -14z m-3525 8 c-1 -7 -5 -19 -10 -26 -4 -7 -5 -19 -2
-27 3 -9 0 -12 -10 -8 -17 6 -18 14 -2 48 12 26 28 34 24 13z m604 8 c0 -11
-19 -15 -25 -6 -3 5 1 10 9 10 9 0 16 -2 16 -4z m-1750 -19 c0 -23 22 -38 37
-25 10 8 17 8 25 0 9 -9 7 -17 -10 -32 -12 -12 -23 -16 -27 -10 -4 6 -14 9
-23 8 -12 -2 -16 3 -14 20 4 26 -6 29 -22 6 -12 -16 -46 -10 -46 8 0 5 5 6 11
3 6 -4 19 2 30 14 22 24 39 27 39 8z m3005 -17 c0 -9 -10 -15 -22 -16 -22 -1
-31 15 -16 30 12 11 38 2 38 -14z m-2059 -37 c-3 -3 -13 0 -22 8 -15 12 -14
14 3 20 17 6 32 -15 19 -28z m-576 -3 c-20 -13 -33 -13 -25 0 3 6 14 10 23 10
15 0 15 -2 2 -10z m1909 1 c11 -7 9 -11 -10 -21 -16 -9 -24 -10 -27 -2 -2 6
-10 8 -18 5 -8 -3 -14 -2 -14 1 0 6 36 24 50 25 3 0 11 -3 19 -8z m-2059 -11
c0 -5 -5 -10 -11 -10 -5 0 -7 5 -4 10 3 6 8 10 11 10 2 0 4 -4 4 -10z m4420 6
c0 -3 -4 -8 -10 -11 -5 -3 -10 -1 -10 4 0 6 5 11 10 11 6 0 10 -2 10 -4z
m-4370 -16 c0 -5 -5 -10 -11 -10 -5 0 -7 5 -4 10 3 6 8 10 11 10 2 0 4 -4 4
-10z m-280 -10 c0 -5 -2 -10 -4 -10 -3 0 -8 5 -11 10 -3 6 -1 10 4 10 6 0 11
-4 11 -10z m510 0 c0 -5 -2 -10 -4 -10 -3 0 -8 5 -11 10 -3 6 -1 10 4 10 6 0
11 -4 11 -10z m4175 0 c3 -5 1 -10 -4 -10 -6 0 -11 5 -11 10 0 6 2 10 4 10 3
0 8 -4 11 -10z m395 6 c0 -3 -4 -8 -10 -11 -5 -3 -10 -1 -10 4 0 6 5 11 10 11
6 0 10 -2 10 -4z m-2830 -26 c0 -5 6 -10 13 -10 16 0 40 -50 24 -51 -7 -1 -17
-2 -23 -3 -5 0 -22 -14 -37 -30 -17 -19 -31 -26 -37 -20 -11 11 -1 56 10 49 5
-3 20 6 33 19 22 22 23 26 9 40 -11 11 -12 16 -4 16 7 0 12 -4 12 -10z m2031
-30 c5 0 0 -9 -11 -20 -21 -21 -40 -19 -40 5 0 7 7 15 15 19 8 3 15 9 14 13
-3 20 4 25 8 6 2 -13 9 -23 14 -23z m453 20 c-10 -4 -21 -6 -24 -3 -8 7 24 22
34 16 5 -4 1 -10 -10 -13z m-4369 -10 c10 -11 13 -20 7 -20 -7 0 -12 5 -12 11
0 6 -9 9 -20 6 -13 -3 -20 0 -20 9 0 20 24 17 45 -6z m125 0 c0 -5 -5 -10 -11
-10 -5 0 -7 5 -4 10 3 6 8 10 11 10 2 0 4 -4 4 -10z m1622 -12 c-19 -19 -15
-40 7 -33 15 5 18 1 13 -21 -4 -21 -9 -24 -28 -20 -12 3 -35 1 -50 -4 -23 -9
-31 -8 -46 8 -19 18 -19 19 6 36 14 9 26 12 26 6 0 -6 7 -6 19 2 11 7 18 15
15 19 -5 8 13 17 36 18 11 1 11 -2 2 -11z m2348 -43 c0 -5 -5 -3 -10 5 -5 8
-10 20 -10 25 0 6 5 3 10 -5 5 -8 10 -19 10 -25z m120 20 c0 -8 -7 -15 -15
-15 -8 0 -15 5 -15 11 0 5 5 7 10 4 6 -3 10 -1 10 4 0 6 2 11 5 11 3 0 5 -7 5
-15z m-4157 -6 l21 -12 -24 -10 c-15 -5 -20 -11 -12 -14 25 -10 11 -21 -26
-20 -29 2 -38 6 -38 20 0 10 10 20 23 23 13 4 23 10 23 15 0 12 7 11 33 -2z
m4157 -69 c0 -7 -6 -5 -16 4 -8 9 -22 16 -30 16 -8 0 -14 10 -14 26 l0 26 30
-30 c17 -17 30 -36 30 -42z m168 61 c10 -6 10 -10 -3 -21 -12 -10 -18 -10 -30
0 -26 22 3 41 33 21z m-509 -43 c13 -20 12 -21 -24 -15 -30 5 -36 3 -31 -8 9
-23 -4 -44 -36 -61 -29 -15 -29 -16 -12 -35 9 -10 14 -19 11 -19 -4 0 -2 -11
3 -25 8 -20 6 -25 -6 -25 -8 0 -12 -4 -9 -10 3 -5 -3 -10 -14 -10 -27 0 -34
-15 -19 -39 15 -24 4 -39 -16 -22 -12 10 -17 8 -26 -9 -6 -12 -17 -19 -23 -17
-14 4 -67 -52 -67 -70 0 -7 -5 -13 -10 -13 -6 0 -24 -15 -41 -32 -19 -21 -29
-26 -25 -15 5 15 2 17 -15 12 -19 -6 -20 -5 -9 14 6 12 8 26 4 32 -9 15 17 30
38 23 13 -4 16 -1 12 10 -4 9 0 18 9 22 13 4 14 11 6 31 -11 31 -3 63 17 63 8
0 18 18 25 45 7 27 18 47 29 50 30 9 70 53 64 69 -6 16 13 24 63 28 17 1 30 5
28 9 -7 11 34 49 48 43 7 -2 18 -14 26 -26z m-2575 -12 c-3 -7 -11 -13 -19
-13 -10 0 -11 5 -4 19 11 20 31 15 23 -6z m3000 -9 c-6 -18 -10 -47 -13 -90
-1 -5 -6 -5 -12 -2 -6 4 -26 -12 -46 -35 -21 -24 -41 -39 -49 -36 -8 3 -15 1
-15 -4 -1 -6 -2 -16 -3 -22 -2 -19 -36 -22 -36 -4 0 9 -6 16 -12 17 -7 0 -1 5
15 11 15 5 27 16 27 24 0 8 5 14 10 14 6 0 10 8 10 19 0 20 23 45 33 35 3 -3
10 4 17 15 6 12 7 22 3 22 -4 1 6 4 22 8 23 5 31 12 33 34 2 15 8 25 13 21 5
-3 7 -15 3 -27z m486 16 c0 -1 -9 -7 -20 -13 -15 -8 -20 -8 -20 3 0 7 9 13 20
13 11 0 20 -1 20 -3z m-3174 -49 c-4 -9 -9 -15 -11 -12 -3 3 -3 13 1 22 4 9 9
15 11 12 3 -3 3 -13 -1 -22z m3168 1 c-4 -8 -8 -15 -10 -15 -2 0 -4 7 -4 15 0
8 4 15 10 15 5 0 7 -7 4 -15z m-2951 -32 c5 -27 3 -32 -18 -37 -13 -3 -30 -9
-39 -12 -11 -4 -16 -1 -16 10 0 9 -4 16 -10 16 -5 0 -10 7 -10 16 0 11 7 14
29 11 17 -3 35 -8 42 -13 7 -4 10 -3 6 4 -4 5 -4 18 -1 27 8 20 10 18 17 -22z
m2930 8 c5 -22 -1 -33 -14 -25 -12 7 -12 44 0 44 5 0 11 -9 14 -19z m-3978 -1
c4 -6 -5 -10 -19 -10 -23 0 -25 -4 -22 -30 2 -20 -1 -30 -10 -30 -8 0 -14 -7
-14 -15 0 -8 -8 -15 -18 -15 -10 0 -23 -5 -30 -12 -9 -9 -12 -6 -12 15 0 15 7
30 15 33 8 4 15 10 15 15 0 15 33 46 55 52 32 8 34 8 40 -3z m-965 -21 c-13
-8 -13 -10 0 -19 20 -13 43 -13 35 0 -3 6 -1 10 5 10 6 0 8 -11 6 -27 -5 -26
-21 -43 -41 -43 -6 0 -17 -16 -24 -36 -16 -43 -47 -58 -79 -37 -13 8 -26 12
-29 9 -3 -3 2 -8 11 -12 20 -8 21 -28 2 -44 -8 -6 -12 -18 -9 -26 4 -11 -2
-14 -27 -12 -21 2 -35 -3 -41 -15 -6 -9 -18 -17 -29 -17 -12 0 -20 -8 -22 -22
-4 -31 -33 -30 -33 1 0 19 -8 27 -33 33 -17 5 -32 13 -32 19 0 6 5 7 11 3 8
-4 9 0 4 15 -7 23 4 28 23 9 13 -13 42 6 42 28 0 8 5 14 11 14 6 0 17 6 24 13
8 6 21 18 29 25 9 6 13 19 9 28 -5 13 -7 13 -23 -1 -14 -12 -19 -13 -22 -3 -8
20 3 43 12 28 6 -9 16 -8 44 5 32 15 37 22 31 42 -4 16 -2 22 5 18 5 -3 10
-15 10 -26 0 -28 16 -23 36 10 12 20 29 31 58 38 45 10 59 7 36 -8z m5056 -36
c-2 -30 3 -54 11 -65 11 -12 12 -22 5 -35 -6 -10 -10 -37 -10 -58 2 -56 -13
-167 -24 -188 -5 -10 -11 -51 -12 -92 -2 -40 -7 -78 -11 -84 -4 -7 -3 -17 3
-24 11 -14 10 -57 -1 -75 -5 -7 -7 -19 -4 -26 3 -7 1 -19 -3 -27 -5 -8 -4 -19
2 -27 8 -9 8 -16 1 -23 -7 -7 -8 -22 -3 -39 5 -16 6 -31 4 -33 -7 -7 -11 -167
-5 -173 10 -10 7 -69 -4 -76 -6 -5 -6 -11 3 -20 17 -17 15 -31 -3 -24 -8 3
-15 1 -15 -4 0 -6 -5 -10 -12 -10 -6 0 -19 -7 -28 -15 -16 -14 -17 -10 -16 61
1 47 -3 87 -12 103 -9 17 -10 27 -3 29 6 2 11 11 11 20 0 14 -2 15 -10 2 -5
-8 -12 -11 -16 -7 -4 4 4 20 19 35 18 18 26 37 25 59 -1 18 5 39 12 48 10 12
10 15 -4 15 -8 0 -23 12 -33 28 -9 15 -18 29 -20 31 -1 2 -11 -2 -20 -10 -16
-13 -17 -12 -4 4 12 15 12 22 1 43 -13 23 -12 27 13 50 15 14 27 33 27 42 0
10 5 23 12 30 9 9 8 12 -5 12 -20 0 -60 42 -47 50 11 7 2 50 -10 50 -5 0 -11
-6 -13 -12 -4 -9 -8 -10 -14 -3 -7 10 -16 11 -50 7 -7 -1 -10 -9 -7 -17 5 -11
-1 -15 -19 -15 -14 0 -27 -5 -29 -10 -2 -6 -24 -11 -51 -12 -26 -1 -47 -4 -47
-5 0 -10 37 -43 48 -43 9 0 11 -7 7 -19 -4 -13 0 -23 12 -30 16 -9 15 -11 -11
-21 -16 -6 -35 -9 -42 -6 -19 7 -39 -21 -25 -37 8 -11 6 -13 -12 -13 -12 1
-25 5 -29 11 -9 12 11 37 23 29 5 -3 9 4 9 15 0 11 -8 25 -17 30 -10 6 -12 11
-5 11 6 0 12 7 12 15 0 8 7 15 15 15 18 0 20 17 3 22 -8 3 -4 12 10 26 27 27
27 29 1 43 -12 6 -19 7 -15 1 10 -16 -5 -43 -23 -40 -11 2 -15 -3 -14 -17 2
-21 -41 -50 -58 -39 -5 3 -19 -2 -31 -10 -28 -20 -38 -20 -38 -2 0 8 -6 16
-12 18 -9 3 -8 9 4 21 9 9 21 17 26 17 6 0 20 16 31 36 16 27 27 35 41 31 14
-4 23 3 32 24 7 16 18 29 25 29 6 0 13 10 15 21 5 34 30 45 67 29 17 -7 31
-17 31 -22 0 -5 -4 -7 -9 -4 -10 7 -71 -22 -71 -33 0 -13 48 -31 65 -25 8 4
15 2 15 -4 0 -6 9 -8 19 -5 17 4 18 8 8 24 -6 10 -18 19 -25 19 -10 0 -10 3 0
14 7 8 15 10 16 5 5 -12 62 -12 62 0 0 15 30 22 48 11 10 -5 12 -10 5 -10 -18
0 -5 -26 22 -44 22 -14 27 -14 55 2 26 14 31 22 27 47 -5 35 1 57 14 49 10 -6
12 26 3 50 -3 9 -13 16 -21 16 -8 0 -11 5 -7 11 4 7 0 9 -12 6 -11 -4 -32 -9
-49 -12 l-30 -7 25 21 c19 16 21 21 9 21 -9 0 -20 7 -23 16 -5 13 -9 14 -20 5
-10 -9 -16 -9 -21 -1 -4 7 -19 9 -37 5 -28 -7 -29 -6 -16 15 22 39 58 74 66
65 4 -4 1 -10 -5 -12 -7 -3 -13 -11 -13 -19 0 -10 7 -13 23 -9 18 5 25 1 32
-20 l10 -27 35 31 34 31 -18 31 c-10 17 -15 33 -11 37 4 4 10 1 12 -5 3 -7 11
-13 18 -13 18 0 47 29 40 41 -4 5 0 9 9 9 8 0 20 16 26 35 16 47 28 36 26 -22z
m-2256 20 c0 -10 -20 -40 -20 -31 0 3 -3 13 -6 22 -4 11 -1 16 10 16 9 0 16
-3 16 -7z m2100 -3 c0 -5 -4 -10 -10 -10 -5 0 -10 5 -10 10 0 6 5 10 10 10 6
0 10 -4 10 -10z m-3100 -10 c0 -5 -5 -10 -11 -10 -5 0 -7 5 -4 10 3 6 8 10 11
10 2 0 4 -4 4 -10z m1045 0 c3 -5 1 -10 -4 -10 -6 0 -11 5 -11 10 0 6 2 10 4
10 3 0 8 -4 11 -10z m-3188 -30 c9 -13 9 -21 2 -26 -6 -4 -15 0 -20 7 -7 11
-9 11 -9 1 0 -7 -5 -10 -10 -7 -7 4 -7 13 0 26 13 24 22 24 37 -1z m3093 -30
c0 -5 -7 -10 -16 -10 -8 0 -12 5 -9 10 3 6 10 10 16 10 5 0 9 -4 9 -10z
m-3005 -9 c3 -5 1 -12 -5 -16 -5 -3 -10 1 -10 9 0 18 6 21 15 7z m-135 -11 c0
-6 12 -15 26 -20 18 -7 24 -15 20 -26 -3 -9 -6 -26 -6 -39 0 -19 -6 -24 -32
-27 -26 -2 -32 -7 -30 -22 3 -14 -1 -17 -13 -12 -9 3 -20 6 -25 6 -9 0 -19 58
-11 66 3 3 6 16 6 30 1 24 29 53 53 54 6 0 12 -5 12 -10z m2110 -4 c0 -3 -4
-8 -10 -11 -5 -3 -10 -1 -10 4 0 6 5 11 10 11 6 0 10 -2 10 -4z m2573 -26 c-5
-20 -33 -28 -33 -10 0 14 23 39 32 34 3 -2 4 -13 1 -24z m297 13 c0 -5 -5 -15
-10 -23 -8 -12 -10 -11 -10 8 0 12 5 22 10 22 6 0 10 -3 10 -7z m-342 -31 c2
-14 -6 -32 -20 -47 -24 -24 -25 -24 -41 -4 -18 20 -23 44 -8 35 4 -3 6 6 3 20
-4 24 -2 25 29 22 27 -2 35 -8 37 -26z m-2618 -17 c-6 -7 -8 -19 -4 -28 6 -16
-11 -31 -35 -32 -8 0 -19 -9 -25 -20 -13 -22 -32 -45 -39 -45 -3 0 2 23 11 50
11 36 21 50 34 50 10 0 22 8 25 18 4 9 11 20 17 24 16 10 28 -2 16 -17z m170
15 c0 -5 -10 -10 -22 -9 -22 0 -22 1 -3 9 11 5 21 9 23 9 1 1 2 -3 2 -9z
m2766 -4 c19 -19 18 -26 -4 -26 -24 0 -32 8 -25 26 7 18 11 18 29 0z m-2729
-22 c-3 -3 -12 -4 -19 -1 -8 3 -5 6 6 6 11 1 17 -2 13 -5z m2676 -37 c-3 -17
-16 -33 -34 -43 -16 -8 -29 -20 -29 -27 0 -7 -16 -19 -35 -26 -39 -14 -45 -26
-15 -34 11 -3 20 -10 20 -16 0 -7 -8 -7 -25 -1 -20 7 -27 6 -31 -4 -11 -29
-30 -25 -26 5 2 16 8 29 13 29 5 0 9 7 9 15 0 8 9 15 19 15 10 0 22 7 25 16 4
9 9 14 13 11 10 -11 33 14 33 34 0 16 58 64 66 56 1 -1 0 -15 -3 -30z m-2849
-13 c3 -8 2 -12 -4 -9 -6 3 -10 10 -10 16 0 14 7 11 14 -7z m3114 4 c7 -7 12
-18 12 -26 0 -12 -3 -12 -15 -2 -18 15 -35 5 -35 -23 0 -14 -3 -18 -10 -11 -6
6 -6 21 2 42 13 34 26 40 46 20z m-3268 -29 c0 -5 -7 -9 -15 -9 -9 0 -12 6 -9
15 6 15 24 11 24 -6z m3333 -10 c4 -13 10 -18 18 -14 7 5 10 3 7 -6 -7 -20
-38 -24 -38 -5 0 8 -7 22 -16 30 -14 15 -14 16 4 16 12 0 22 -9 25 -21z
m-3223 -29 c0 -5 -2 -10 -4 -10 -3 0 -8 5 -11 10 -3 6 -1 10 4 10 6 0 11 -4
11 -10z m3090 -19 c0 -11 -26 -22 -34 -14 -12 12 -5 23 14 23 11 0 20 -4 20
-9z m-3080 -5 c0 -3 -4 -8 -10 -11 -5 -3 -10 -1 -10 4 0 6 5 11 10 11 6 0 10
-2 10 -4z m2070 -36 c0 -5 -2 -10 -4 -10 -3 0 -8 5 -11 10 -3 6 -1 10 4 10 6
0 11 -4 11 -10z m-3970 -20 c0 -5 -7 -10 -15 -10 -8 0 -15 -5 -15 -12 0 -6 -3
-8 -6 -5 -8 8 14 37 27 37 5 0 9 -4 9 -10z m1670 -33 c-26 -14 -54 -11 -44 4
3 5 20 9 37 9 l32 0 -25 -13z m555 -36 c89 -6 105 -8 117 -18 7 -5 36 -10 64
-10 29 0 68 -6 88 -13 20 -6 43 -9 51 -7 7 3 30 -10 50 -29 20 -18 48 -37 63
-40 15 -4 32 -11 39 -16 6 -5 23 -10 36 -12 25 -2 57 -27 57 -43 0 -4 14 -19
30 -32 17 -13 30 -31 30 -40 0 -10 18 -32 40 -50 22 -17 40 -38 40 -45 0 -6
14 -31 31 -54 31 -43 46 -84 54 -156 3 -22 10 -43 17 -47 11 -7 18 -38 18 -85
0 -12 7 -27 15 -34 11 -9 12 -17 5 -30 -7 -13 -6 -20 2 -22 9 -3 8 -10 -5 -22
-16 -17 -20 -40 -22 -151 0 -22 -4 -48 -9 -58 -5 -9 -6 -27 -3 -38 6 -23 -18
-75 -47 -104 -9 -10 -20 -31 -23 -47 -4 -18 -15 -33 -29 -38 -15 -6 -27 -23
-35 -50 -7 -22 -16 -40 -20 -40 -5 0 -6 -6 -3 -14 4 -10 0 -14 -13 -12 -38 7
-73 -34 -40 -47 7 -4 6 -6 -4 -6 -9 -1 -24 -12 -33 -26 -9 -14 -29 -28 -44
-31 -15 -4 -38 -14 -52 -23 -41 -28 -79 -41 -116 -41 -24 0 -33 -4 -28 -12 5
-7 3 -8 -5 -3 -7 4 -22 -2 -36 -15 -20 -19 -27 -20 -61 -11 -34 9 -41 8 -64
-12 -14 -12 -27 -26 -28 -30 -2 -4 -10 -3 -17 3 -9 8 -14 6 -19 -6 -5 -12 -13
-14 -34 -9 -15 4 -45 8 -66 10 -60 6 -139 27 -158 43 -10 8 -45 15 -86 17 -70
3 -95 12 -140 52 -13 13 -28 21 -32 18 -4 -3 -13 1 -19 9 -7 8 -23 17 -37 20
-16 4 -30 19 -40 41 -8 19 -21 35 -29 35 -8 0 -17 11 -21 24 -3 15 -15 27 -30
30 -13 4 -24 11 -24 17 0 5 -9 20 -21 32 -34 36 -71 125 -74 178 -1 15 -9 34
-18 44 -9 9 -17 25 -17 36 0 11 -5 29 -11 40 -24 46 -27 87 -15 242 4 53 11
97 16 97 4 0 7 17 7 38 -1 98 3 111 34 142 18 16 36 30 40 30 5 0 6 6 3 14 -3
7 2 16 11 20 9 3 14 10 10 16 -7 12 22 70 35 70 6 0 10 9 10 20 0 13 7 20 20
20 11 0 20 5 20 11 0 15 26 39 42 39 8 0 21 15 29 33 12 27 20 32 52 35 24 2
37 8 34 15 -6 18 12 30 93 62 41 16 77 32 80 35 3 3 14 7 25 8 11 2 25 8 32
14 6 5 28 6 48 2 30 -5 40 -3 56 15 14 14 25 19 32 13 7 -5 30 -10 52 -11z
m-605 -43 c0 -30 -3 -33 -35 -35 -20 -2 -35 2 -35 8 0 6 8 8 19 4 15 -5 21 0
26 25 9 40 25 39 25 -2z m2120 12 c0 -5 -2 -10 -4 -10 -3 0 -8 5 -11 10 -3 6
-1 10 4 10 6 0 11 -4 11 -10z m37 -97 c-3 -2 -18 -3 -34 -1 l-28 3 30 17 c26
14 30 14 33 1 2 -8 2 -17 -1 -20z m530 -5 c-3 -8 -6 -5 -6 6 -1 11 2 17 5 13
3 -3 4 -12 1 -19z m-40 -4 c-3 -3 -12 -4 -19 -1 -8 3 -5 6 6 6 11 1 17 -2 13
-5z m399 -51 c-10 -10 -19 5 -10 18 6 11 8 11 12 0 2 -7 1 -15 -2 -18z m-456
0 c0 -24 -11 -38 -35 -47 -16 -6 -17 -9 -5 -16 11 -7 8 -11 -13 -21 -15 -7
-27 -16 -27 -21 0 -5 -5 -6 -11 -3 -6 5 -3 13 10 22 12 8 19 18 16 23 -3 5 6
17 20 28 14 11 25 27 25 36 0 9 5 16 10 16 6 0 10 -8 10 -17z m-2742 -11 c5
-16 -17 -25 -33 -12 -10 8 -15 8 -20 -1 -6 -8 -10 -8 -16 2 -4 7 -6 16 -4 19
6 9 69 3 73 -8z m52 -28 c0 -8 -4 -12 -10 -9 -5 3 -10 10 -10 16 0 5 5 9 10 9
6 0 10 -7 10 -16z m3130 -18 c0 -2 -7 -6 -15 -10 -8 -3 -15 -1 -15 4 0 6 7 10
15 10 8 0 15 -2 15 -4z m-51 -47 c-22 -13 -31 -11 -17 5 7 8 17 12 22 9 4 -3
2 -9 -5 -14z m-1039 -3 c0 -3 -4 -8 -10 -11 -5 -3 -10 -1 -10 4 0 6 5 11 10
11 6 0 10 -2 10 -4z m1582 -28 c6 -18 -62 -40 -79 -26 -7 6 -13 15 -13 21 0 6
3 8 6 5 3 -3 17 -2 32 2 39 12 50 11 54 -2z m-1592 -18 c8 -5 11 -12 8 -15 -4
-4 -17 0 -30 9 -24 17 -5 23 22 6z m556 -23 c-1 -30 -33 -58 -63 -56 -4 0 -10
-7 -13 -16 -5 -15 -8 -14 -27 2 l-21 18 35 25 c19 14 42 32 50 42 20 21 40 14
39 -15z m894 -27 c0 -5 -8 -10 -17 -10 -15 0 -16 2 -3 10 19 12 20 12 20 0z
m195 0 c3 -5 1 -10 -4 -10 -6 0 -11 5 -11 10 0 6 2 10 4 10 3 0 8 -4 11 -10z
m-245 -101 c-7 -12 -17 -18 -27 -15 -8 3 -17 6 -19 6 -2 0 -4 7 -4 15 0 8 7
15 15 15 8 0 15 7 15 16 0 14 2 14 15 0 13 -12 14 -20 5 -37z m-500 16 c0 -8
-4 -15 -10 -15 -5 0 -7 7 -4 15 4 8 8 15 10 15 2 0 4 -7 4 -15z m-35 -45 c3
-5 2 -10 -4 -10 -5 0 -11 -12 -13 -27 -2 -22 -10 -30 -35 -38 -18 -5 -33 -15
-33 -23 0 -7 -6 -20 -14 -28 -16 -15 -41 -20 -32 -5 3 5 -1 11 -9 15 -18 7
-20 -5 -2 -23 10 -10 9 -15 -5 -25 -10 -7 -18 -20 -18 -28 0 -9 -7 -21 -15
-28 -8 -7 -15 -19 -15 -26 0 -13 -12 -18 -32 -15 -5 0 -8 -4 -8 -9 0 -6 -11
-15 -25 -20 -15 -6 -25 -17 -25 -30 0 -11 -4 -20 -10 -20 -5 0 -20 -11 -34
-25 -14 -14 -31 -23 -38 -20 -8 3 -21 -11 -32 -35 -10 -22 -23 -37 -27 -34 -5
3 -9 -4 -9 -15 0 -12 -6 -22 -12 -23 -7 0 -17 -2 -23 -3 -5 -2 -16 -3 -22 -4
-7 0 -13 -10 -13 -21 0 -11 -7 -20 -15 -20 -7 0 -19 -8 -24 -17 -6 -10 -11
-13 -11 -8 0 6 -5 3 -10 -5 -8 -12 -10 -10 -10 9 0 16 4 21 14 18 16 -6 38 15
34 31 -3 12 110 162 123 162 4 0 10 -6 13 -12 4 -7 4 -3 2 9 -2 12 -1 23 3 25
5 2 23 23 42 48 57 73 169 180 190 180 13 0 19 7 19 21 0 18 4 20 26 15 21 -6
25 -4 21 8 -4 10 4 16 29 20 25 5 34 12 34 26 0 21 15 27 25 10z m759 -32 c-5
-8 -10 -5 -14 8 -10 25 0 41 12 20 5 -9 6 -21 2 -28z m-4226 2 c-11 -18 -28
-27 -28 -16 0 6 30 36 36 36 2 0 -1 -9 -8 -20z m2406 -25 c-12 -18 -19 -23
-25 -14 -10 17 -1 37 19 42 25 5 25 2 6 -28z m-3393 5 c6 0 7 5 3 12 -4 7 -3
8 4 4 19 -12 14 -23 -29 -66 -43 -43 -50 -47 -46 -28 1 7 -8 17 -20 23 -26 11
-31 45 -8 45 8 0 15 -4 15 -9 0 -5 12 -8 28 -7 20 2 28 9 31 27 2 13 6 18 8
12 3 -7 9 -13 14 -13z m3359 -44 c0 -8 5 -16 10 -18 6 -2 1 -9 -11 -17 -20
-12 -21 -11 -15 4 4 11 0 23 -11 31 -17 12 -16 13 5 14 12 0 22 -6 22 -14z
m-2464 -53 c-11 -11 -19 6 -11 24 8 17 8 17 12 0 3 -10 2 -21 -1 -24z m2424 8
c0 -11 -19 -24 -37 -27 -7 -1 -13 2 -13 7 0 5 7 9 15 9 8 0 15 5 15 10 0 6 5
10 10 10 6 0 10 -4 10 -9z m-2055 -11 c-4 -6 -1 -17 5 -25 10 -12 9 -15 -9
-15 -11 0 -21 3 -21 6 0 9 20 44 26 44 3 0 2 -5 -1 -10z m-50 -30 c2 -22 -31
-57 -42 -46 -4 3 1 23 11 42 17 37 29 39 31 4z m-891 -15 c8 -8 26 -15 40 -15
36 0 33 -21 -8 -64 -38 -41 -39 -41 -60 -20 -15 14 -16 14 -16 -5 0 -12 -4
-21 -9 -21 -5 0 -13 -10 -17 -22 -8 -28 -22 -38 -50 -38 -12 0 -27 -7 -34 -16
-8 -8 -9 -14 -4 -13 21 4 32 -2 39 -18 5 -15 4 -16 -6 -5 -17 16 -30 15 -23
-2 8 -22 -44 -7 -61 17 -8 12 -15 16 -15 10 0 -7 5 -15 10 -18 6 -3 10 -11 10
-18 0 -6 -10 -2 -21 10 l-22 22 31 30 c19 19 36 29 46 25 9 -3 16 -1 16 5 0 6
-4 11 -9 11 -5 0 -11 9 -14 20 -4 15 0 20 14 20 10 0 19 5 19 11 0 5 5 7 11 4
6 -4 26 -8 46 -9 33 -1 34 0 30 27 -2 17 1 26 7 24 6 -3 10 -9 9 -15 -1 -5 5
-13 13 -16 12 -5 15 -2 10 9 -3 9 -2 13 4 10 14 -8 52 14 44 26 -4 6 -12 5
-22 -3 -10 -9 -13 -9 -9 -1 4 7 -2 21 -15 32 -12 12 -17 21 -11 21 7 0 18 -7
27 -15z m4981 5 c3 -5 -3 -10 -15 -10 -12 0 -18 5 -15 10 3 6 10 10 15 10 5 0
12 -4 15 -10z m-2057 -48 c2 -8 -5 -11 -20 -10 -17 2 -24 -3 -26 -19 -2 -13
-9 -23 -17 -23 -17 0 -8 41 14 58 18 15 43 12 49 -6z m502 -2 c0 -5 -5 -10
-11 -10 -5 0 -7 5 -4 10 3 6 8 10 11 10 2 0 4 -4 4 -10z m-2630 -69 c0 -5 -7
-14 -15 -21 -16 -14 -18 -10 -9 14 6 17 24 22 24 7z m4180 -62 c-10 -7 -11
-12 -4 -15 15 -7 -17 -123 -39 -139 -9 -7 -17 -17 -17 -23 0 -12 -30 -25 -39
-17 -3 3 0 15 7 25 7 12 8 20 2 20 -5 0 -10 5 -10 10 0 6 9 10 19 10 11 0 23
5 26 10 3 6 1 10 -4 10 -20 0 -11 47 14 74 14 15 25 31 25 37 0 5 8 9 18 9 15
0 15 -2 2 -11z m-5245 -59 c23 -9 25 -13 15 -25 -8 -10 -9 -15 -2 -15 12 0 62
-43 62 -54 0 -13 -31 -5 -36 9 -5 11 -11 12 -25 4 -11 -5 -25 -9 -32 -8 -6 1
-21 1 -31 0 -18 -1 -18 -2 -3 -19 16 -18 23 -52 11 -52 -3 0 -14 10 -25 23
-17 19 -20 20 -31 7 -7 -9 -26 -17 -42 -18 -16 -1 -34 -9 -40 -17 -10 -12 -14
-12 -31 2 -15 11 -16 17 -7 20 7 3 18 17 24 32 9 21 12 23 15 9 5 -19 5 -19
41 -23 18 -2 20 0 11 11 -6 8 -7 14 -2 14 5 0 9 10 10 21 3 38 31 58 71 52 31
-5 35 -3 25 8 -13 13 -17 29 -9 29 3 0 17 -5 31 -10z m3445 -80 c0 -5 -4 -10
-10 -10 -5 0 -10 5 -10 10 0 6 5 10 10 10 6 0 10 -4 10 -10z m-3590 -14 c0 -3
-4 -8 -10 -11 -5 -3 -10 -1 -10 4 0 6 5 11 10 11 6 0 10 -2 10 -4z m3955 -57
c-7 -11 -35 -12 -35 -1 0 4 9 8 20 9 11 1 18 -2 15 -8z m-2845 -39 c0 -5 -4
-10 -9 -10 -6 0 -13 5 -16 10 -3 6 1 10 9 10 9 0 16 -4 16 -10z m4155 0 c3 -5
1 -10 -4 -10 -6 0 -11 5 -11 10 0 6 2 10 4 10 3 0 8 -4 11 -10z m-1361 -34
c-6 -14 -33 -30 -41 -23 -9 10 11 37 28 37 12 0 16 -5 13 -14z m1339 0 c3 -8
-2 -16 -14 -19 -10 -3 -19 -4 -19 -2 0 2 -3 10 -6 19 -4 11 0 16 14 16 11 0
22 -6 25 -14z m-5593 -107 c0 -18 -18 -9 -23 12 -4 16 -3 18 9 8 8 -6 14 -15
14 -20z m1315 11 c3 -5 -1 -10 -9 -10 -9 0 -19 0 -23 -1 -4 0 -9 4 -11 10 -5
14 35 14 43 1z m4179 -22 c7 -5 7 -8 -2 -8 -9 0 -11 -7 -7 -19 5 -16 -8 -29
-30 -31 -7 0 -45 -39 -45 -46 0 -3 5 -2 10 1 15 10 12 -12 -5 -28 -10 -11 -11
-17 -3 -19 13 -5 -11 -46 -54 -93 -16 -16 -35 -45 -43 -62 -9 -18 -25 -37 -35
-43 -11 -6 -22 -21 -26 -33 -6 -22 -61 -73 -69 -65 -6 5 -9 36 -7 68 1 14 21
45 47 72 25 27 45 53 45 59 0 6 7 17 15 25 8 8 12 21 9 29 -4 8 -1 15 6 15 6
0 9 4 5 9 -3 5 8 17 24 27 17 10 31 29 35 46 3 15 11 28 18 28 6 0 22 10 35
22 19 18 26 20 32 9 6 -9 11 -10 15 -2 4 6 2 11 -4 11 -20 0 -23 31 -4 45 14
10 20 10 23 2 2 -7 9 -15 15 -19z m-4234 -12 c0 -2 -7 -6 -15 -10 -8 -3 -15
-1 -15 4 0 6 7 10 15 10 8 0 15 -2 15 -4z m4415 -36 c3 -5 1 -10 -4 -10 -6 0
-11 5 -11 10 0 6 2 10 4 10 3 0 8 -4 11 -10z m-1 -28 c6 -9 -18 -170 -26 -178
-10 -9 -58 8 -58 21 0 7 -5 15 -11 17 -8 3 -7 14 5 36 9 17 16 34 15 37 -3 16
25 64 39 68 28 7 31 7 36 -1z m-4111 -43 c4 -16 3 -18 -9 -8 -7 6 -11 15 -8
20 8 13 11 11 17 -12z m-396 -11 c-3 -8 -6 -5 -6 6 -1 11 2 17 5 13 3 -3 4
-12 1 -19z m686 -6 c-6 -4 -11 -16 -10 -27 2 -23 -33 -29 -40 -7 -3 6 2 12 11
12 9 0 16 7 16 15 0 8 8 15 18 15 11 0 13 -3 5 -8z m220 -125 c-7 -11 -23 2
-23 19 0 12 2 12 14 2 8 -7 12 -16 9 -21z m-309 11 c-3 -4 -9 -8 -15 -8 -5 0
-9 4 -9 8 0 5 7 9 15 9 8 0 12 -4 9 -9z m2816 -8 c0 -11 -7 -20 -15 -20 -18 0
-19 12 -3 28 16 16 18 15 18 -8z m1050 -31 c0 -6 -4 -7 -10 -4 -5 3 -10 11
-10 16 0 6 5 7 10 4 6 -3 10 -11 10 -16z m685 -5 c360 -7 347 -5 365 -40 26
-53 21 -77 -24 -109 -57 -41 -122 -95 -240 -201 -56 -50 -120 -104 -143 -121
-23 -17 -39 -33 -36 -37 3 -3 1 -6 -6 -6 -7 0 -40 -20 -74 -43 -34 -24 -78
-52 -97 -63 -19 -10 -60 -39 -90 -65 -30 -25 -66 -52 -80 -59 -25 -13 -108
-78 -142 -112 -10 -10 -22 -18 -28 -18 -5 0 -20 -11 -34 -25 -29 -29 -51 -33
-41 -7 3 9 8 75 10 145 5 151 8 167 36 160 13 -4 29 5 52 28 17 19 44 40 58
47 14 8 60 44 102 82 93 83 143 119 224 155 59 27 79 47 68 65 -3 5 -42 8 -88
9 -45 0 -113 5 -150 11 -50 8 -78 8 -106 -1 -24 -7 -61 -9 -96 -4 l-57 7 7 41
c3 23 8 61 9 85 2 24 9 49 15 55 11 11 80 15 248 16 23 0 44 5 48 11 4 6 14 9
24 5 9 -3 129 -8 266 -11z m-6405 -14 c0 -11 -4 -20 -10 -20 -5 0 -10 9 -10
20 0 11 5 20 10 20 6 0 10 -9 10 -20z m2117 1 c-1 -16 -5 -18 -19 -10 -10 6
-17 6 -16 2 2 -5 -7 -19 -19 -32 -12 -13 -20 -29 -16 -35 4 -7 2 -8 -5 -1 -17
16 8 83 33 88 39 8 44 7 42 -12z m-1097 -10 c0 -5 -7 -11 -15 -15 -9 -3 -15 0
-15 9 0 8 7 15 15 15 8 0 15 -4 15 -9z m4695 -33 c-1 -24 2 -51 7 -60 5 -10 5
-18 1 -18 -4 0 -8 -21 -9 -47 -1 -50 -7 -84 -26 -143 l-11 -35 -13 31 c-7 17
-20 34 -29 37 -15 6 -22 37 -7 37 4 0 6 15 6 32 -1 20 6 40 17 51 10 9 16 24
13 32 -4 8 -1 15 6 15 6 0 8 5 5 10 -3 6 -1 10 6 10 7 0 9 3 6 7 -4 3 -2 12 4
19 6 8 9 20 6 28 -4 10 9 36 18 36 1 0 1 -19 0 -42z m-1095 -7 c0 -6 -4 -13
-10 -16 -5 -3 -10 1 -10 9 0 9 5 16 10 16 6 0 10 -4 10 -9z m-4605 -20 c3 -10
19 -24 36 -31 16 -7 28 -15 25 -17 -9 -9 36 -51 49 -47 7 3 16 1 20 -5 3 -6
-1 -11 -9 -11 -9 0 -16 -6 -17 -12 0 -7 -4 -5 -8 5 -6 17 -9 16 -34 -5 -15
-13 -27 -28 -27 -32 0 -5 3 -6 6 -3 4 4 14 -8 24 -25 19 -36 40 -48 40 -24 0
13 6 15 28 10 15 -4 32 -10 37 -14 12 -10 63 -1 70 11 3 4 12 6 21 2 8 -3 22
1 32 8 30 24 61 39 81 39 11 0 26 8 33 18 17 24 68 35 68 15 0 -8 4 -12 10 -8
5 3 18 -3 30 -15 11 -11 20 -15 20 -9 0 6 9 9 20 6 11 -3 20 0 20 5 0 15 50
59 59 53 7 -4 8 -22 2 -59 0 -4 -9 -5 -18 -2 -9 4 -20 1 -24 -5 -9 -14 10 -35
37 -41 16 -4 15 -7 -9 -16 -25 -11 -31 -9 -48 10 -18 22 -20 22 -33 5 -8 -10
-18 -17 -22 -15 -19 5 -114 -13 -114 -22 0 -6 -9 -10 -20 -10 -13 0 -22 -9
-26 -25 -4 -18 -13 -25 -30 -25 -15 0 -24 -6 -24 -15 0 -21 -38 -19 -43 3 -4
15 -6 14 -12 -5 -6 -19 -10 -20 -32 -10 -21 9 -27 7 -47 -17 -16 -21 -28 -27
-42 -22 -13 4 -23 0 -32 -14 -11 -18 -10 -19 18 -13 23 4 30 2 30 -11 0 -9 7
-16 15 -16 8 0 15 -6 15 -14 0 -8 5 -16 11 -18 7 -2 7 -12 0 -30 -7 -18 -15
-25 -28 -22 -13 4 -22 -5 -35 -36 -10 -22 -18 -47 -18 -54 0 -8 -12 -24 -26
-35 -24 -19 -25 -21 -6 -21 16 0 19 -5 15 -21 -6 -20 -7 -20 -18 -5 -16 22
-24 20 -18 -4 3 -11 1 -20 -5 -20 -5 0 -9 -11 -9 -25 -1 -31 -6 -37 -33 -39
-24 -1 -28 -18 -6 -28 9 -5 24 -12 34 -17 18 -8 25 -49 12 -66 -4 -5 -10 -23
-14 -39 -4 -15 -10 -26 -13 -22 -8 8 -48 -60 -56 -95 -5 -21 -2 -28 21 -40 15
-8 32 -18 39 -24 7 -5 19 -16 27 -22 20 -17 37 -16 64 3 13 9 29 13 37 10 8
-3 17 -1 20 5 4 5 11 7 16 4 5 -4 9 -1 9 5 0 6 10 8 26 4 20 -5 26 -2 31 15 6
24 28 28 37 6 3 -9 0 -15 -9 -15 -9 0 -12 -6 -9 -15 5 -13 11 -12 36 6 32 24
49 19 27 -8 -12 -15 -12 -16 4 -10 11 4 17 2 16 -6 -4 -31 1 -38 22 -32 16 5
20 4 15 -6 -4 -8 -1 -6 7 4 17 20 28 22 24 5 -1 -8 9 -11 31 -9 25 2 32 -1 32
-14 0 -13 5 -16 23 -10 43 14 82 10 95 -8 12 -15 23 -17 70 -12 70 8 112 26
149 65 15 17 37 30 48 31 14 0 16 2 5 6 -8 3 -21 10 -28 16 -17 13 5 39 28 32
21 -7 68 17 63 32 -2 6 0 14 5 17 13 8 24 -37 15 -59 -5 -14 -2 -16 17 -10 20
6 22 4 17 -14 -7 -30 48 -87 98 -100 28 -8 41 -7 46 1 8 12 53 14 84 4 13 -5
27 -1 40 12 11 10 26 17 33 14 7 -2 12 5 12 16 0 10 7 19 15 20 8 1 22 3 30 4
8 1 15 5 15 9 0 18 31 -5 50 -36 12 -19 30 -37 41 -40 10 -4 16 -11 13 -17 -5
-7 -2 -8 7 -2 8 4 20 9 27 10 8 2 22 10 31 18 13 12 31 15 63 11 30 -3 64 2
99 15 64 24 59 23 59 7 0 -21 38 -33 111 -36 53 -1 77 3 123 24 46 21 60 24
77 14 12 -6 33 -9 48 -6 14 3 35 1 46 -3 27 -10 56 6 48 26 -5 14 -3 15 15 5
18 -10 22 -9 22 4 0 18 40 21 40 3 0 -7 5 -5 11 5 8 13 7 22 -2 33 -9 11 -9
18 -1 26 8 8 18 3 35 -18 25 -28 25 -29 46 -10 21 19 29 42 11 31 -5 -3 -10 0
-10 9 0 8 -3 23 -6 33 -5 13 -2 12 11 -5 13 -18 20 -21 31 -11 8 6 14 8 14 3
1 -5 10 2 20 15 17 19 23 21 35 11 8 -7 12 -16 10 -21 -3 -4 9 -2 27 5 20 8
41 10 53 5 11 -4 16 -8 10 -8 -5 -1 -3 -6 5 -11 13 -8 13 -13 2 -30 -10 -17
-11 -25 -1 -36 7 -8 18 -13 26 -10 7 3 21 -3 30 -14 10 -11 30 -20 45 -20 16
0 27 -5 26 -11 -4 -15 56 -16 74 -3 7 6 26 11 42 12 16 1 34 10 41 19 11 14
15 15 28 4 18 -14 37 -7 37 15 0 8 4 22 9 32 5 9 12 25 15 35 3 10 11 15 17
11 6 -3 15 0 20 7 7 9 7 5 3 -13 -4 -18 -2 -28 5 -28 17 0 13 -18 -9 -48 -28
-37 -33 -69 -12 -69 10 0 23 4 30 10 8 6 12 6 12 -1 0 -6 7 -9 15 -6 18 7 19
0 5 -27 -9 -15 -7 -20 7 -25 10 -3 31 -12 46 -20 16 -7 35 -14 42 -14 7 0 16
-6 18 -12 3 -7 6 -2 6 11 1 16 5 21 16 18 8 -4 17 -2 21 4 3 6 13 8 21 5 9 -4
22 2 30 11 10 13 16 15 19 6 8 -18 34 -16 34 2 0 8 -5 15 -11 15 -5 0 -7 5 -4
10 4 6 11 7 18 3 6 -3 23 -7 39 -8 24 -2 27 1 22 21 -4 16 0 25 14 33 24 13
36 3 20 -16 -8 -11 -7 -12 6 -7 19 7 21 -7 4 -24 -12 -12 -4 -15 45 -15 10 0
20 -9 23 -23 4 -17 17 -27 44 -34 35 -9 43 -8 84 21 25 17 46 34 46 39 0 4 11
11 25 14 14 4 25 11 25 16 0 17 28 11 40 -7 11 -17 11 -17 6 0 -3 10 -2 16 2
14 4 -2 16 -7 26 -11 18 -6 18 -7 -3 -30 l-21 -23 27 -12 c16 -7 29 -9 31 -3
2 6 20 6 48 0 32 -7 49 -7 57 1 6 6 19 11 28 11 10 0 19 6 22 13 3 9 7 9 20
-1 25 -21 97 -6 97 19 0 11 4 18 9 14 6 -3 8 -15 6 -27 -3 -11 3 -33 12 -49
26 -43 3 -58 -83 -56 -38 0 -75 -2 -81 -6 -17 -11 -249 -10 -270 1 -26 14 -93
24 -93 15 0 -9 -388 -7 -645 2 -184 8 -307 9 -490 7 -411 -5 -704 -1 -743 9
-33 9 -48 9 -65 0 -16 -8 -82 -10 -232 -7 -115 3 -219 5 -230 5 -80 -2 -153
-6 -161 -11 -21 -12 -504 -6 -546 6 -24 7 -88 14 -143 15 -121 2 -207 10 -291
26 -19 4 -55 29 -79 55 -5 6 -20 20 -32 32 -15 14 -22 32 -21 54 1 19 -6 42
-14 51 -11 12 -15 33 -13 63 1 25 -3 56 -10 70 -10 20 -13 86 -4 110 1 3 1 9
0 14 -3 13 18 105 32 141 6 17 10 38 9 48 -2 10 1 32 7 50 23 68 37 209 45
442 3 80 11 115 26 115 5 0 11 -9 15 -19z m5034 -2 c-16 -10 -23 -4 -14 10 3
6 11 8 17 5 6 -4 5 -9 -3 -15z m551 12 c0 -6 -4 -13 -10 -16 -5 -3 -10 1 -10
9 0 9 5 16 10 16 6 0 10 -4 10 -9z m-620 -21 c0 -11 -7 -20 -15 -20 -8 0 -15
9 -15 20 0 11 7 20 15 20 8 0 15 -9 15 -20z m669 -19 c-15 -5 -22 6 -14 19 6
9 10 9 16 -1 5 -8 4 -15 -2 -18z m-401 -38 c-2 -12 2 -17 12 -15 12 3 13 1 3
-9 -7 -7 -13 -22 -13 -33 0 -19 -1 -19 -20 2 -27 29 -27 72 0 72 14 0 20 -6
18 -17z m-1748 -24 c0 -11 -5 -16 -14 -13 -7 3 -21 -3 -31 -12 -11 -12 -14
-19 -6 -22 6 -2 11 -8 11 -14 0 -6 -6 -8 -14 -5 -8 3 -22 -3 -31 -13 -10 -11
-22 -17 -26 -14 -16 10 -9 24 16 34 14 5 25 14 25 20 0 6 -4 8 -10 5 -5 -3 -7
0 -4 9 3 8 12 12 20 9 12 -4 19 11 16 38 -1 3 10 4 23 1 16 -3 25 -11 25 -23z
m927 15 c3 -8 0 -21 -7 -27 -10 -9 -11 -9 -6 1 4 7 2 19 -4 27 -9 11 -9 15 -1
15 6 0 14 -7 18 -16z m-1965 -58 c-3 -6 -7 -5 -10 2 -5 17 -15 15 -42 -10
l-23 -22 6 25 c4 13 7 27 7 31 0 4 6 5 14 2 8 -3 17 0 21 6 5 8 11 5 20 -7 7
-10 11 -22 7 -27z m-1667 24 c3 -6 -1 -7 -9 -4 -18 7 -21 14 -7 14 6 0 13 -4
16 -10z m923 -13 c2 -11 -6 -21 -22 -27 -14 -5 -26 -14 -26 -19 0 -9 -52 -23
-59 -16 -6 6 27 35 39 35 8 0 10 9 7 23 -5 19 -2 22 26 21 21 -1 33 -6 35 -17z
m2672 16 c0 -12 -31 -34 -40 -28 -19 12 -10 33 15 33 14 0 25 -3 25 -5z
m-2760 -13 c0 -5 -2 -10 -4 -10 -3 0 -8 5 -11 10 -3 6 -1 10 4 10 6 0 11 -4
11 -10z m260 0 c0 -6 -12 -22 -27 -37 -28 -25 -28 -25 -31 -3 -2 12 4 28 15
35 22 17 43 19 43 5z m4889 -178 c-12 -20 -55 -70 -96 -110 -40 -40 -73 -76
-73 -81 0 -5 -8 -12 -17 -15 -10 -3 -29 -13 -43 -21 -14 -8 -35 -15 -47 -15
-21 0 -73 -42 -73 -59 0 -15 -122 -116 -166 -137 -25 -12 -63 -38 -85 -58 -22
-20 -68 -51 -102 -71 -34 -19 -78 -51 -97 -70 -19 -20 -46 -46 -60 -58 -13
-12 -45 -42 -70 -67 -46 -47 -138 -110 -159 -110 -13 0 -7 54 11 102 6 15 8
34 5 43 -6 14 2 45 25 108 6 16 18 27 29 27 22 0 72 35 159 110 34 30 74 62
90 70 16 8 48 31 72 52 24 20 70 51 103 69 64 34 119 74 175 126 19 18 38 33
42 33 6 0 135 112 236 205 18 16 61 49 95 72 l62 42 3 -75 c2 -63 -1 -81 -19
-112z m-2449 168 c10 -6 15 -27 16 -60 1 -44 -2 -50 -17 -45 -19 6 -59 -14
-59 -28 0 -5 8 -6 17 -3 15 6 15 4 -2 -14 -10 -11 -23 -20 -30 -20 -6 0 -10
-13 -9 -30 2 -24 -2 -30 -17 -30 -11 0 -31 -12 -44 -26 -13 -14 -28 -23 -33
-20 -5 3 -15 -15 -21 -39 -8 -34 -18 -48 -36 -55 -29 -11 -30 -16 -10 -36 17
-17 20 -44 5 -44 -5 0 -14 8 -20 18 -9 16 -11 15 -29 -5 -13 -15 -34 -24 -68
-28 -46 -5 -49 -4 -51 19 -1 17 5 27 18 31 22 7 101 75 87 75 -4 0 -3 9 3 20
8 15 17 19 37 14 22 -6 24 -4 19 13 -4 14 -1 23 9 26 8 4 12 13 9 22 -4 9 0
23 8 33 8 9 27 39 42 65 18 32 33 47 42 43 7 -3 18 4 24 15 6 11 16 17 21 13
6 -4 9 2 8 12 -5 28 8 43 33 36 14 -3 19 -2 14 6 -7 12 0 32 12 32 4 0 14 -5
22 -10z m900 -19 c0 -5 -7 -11 -15 -15 -8 -3 -15 -10 -15 -16 0 -5 7 -10 15
-10 8 0 15 -4 15 -10 0 -5 -7 -10 -15 -10 -27 0 -65 -23 -65 -41 0 -9 -5 -19
-11 -21 -6 -2 -12 -15 -12 -30 -1 -14 -4 -26 -7 -25 -8 3 -70 -46 -70 -55 0
-13 -43 -68 -53 -68 -5 0 -6 7 -3 16 3 8 2 12 -4 9 -13 -8 -13 -2 1 29 7 14
23 26 39 30 22 4 27 9 23 25 -5 21 41 81 63 81 6 0 12 10 12 23 0 12 5 35 11
51 9 23 14 26 26 16 13 -10 15 -8 15 12 0 14 3 28 6 31 8 8 44 -11 44 -22z
m280 -21 c0 -9 -31 -23 -37 -16 -3 3 1 11 8 19 14 15 29 13 29 -3z m-677 -20
c-3 -11 -9 -20 -14 -20 -16 0 -23 32 -8 40 19 12 28 3 22 -20z m1235 19 c78
-18 77 -17 33 -49 -22 -17 -43 -30 -45 -30 -5 0 -46 -33 -80 -65 -12 -11 -44
-36 -70 -55 -26 -19 -65 -50 -86 -67 -50 -44 -64 -43 -57 5 4 20 9 80 12 132
8 118 15 127 111 128 36 1 69 4 72 7 9 8 60 6 110 -6z m-4366 -11 c-7 -7 -12
-20 -12 -29 0 -10 -13 -26 -30 -36 -31 -18 -40 -43 -16 -43 7 0 19 -7 26 -15
9 -10 9 -15 1 -15 -6 0 -11 4 -11 9 0 5 -9 7 -20 4 -11 -3 -20 -8 -20 -12 0
-11 -55 -9 -63 2 -5 7 -6 3 -2 -9 4 -17 0 -23 -19 -28 -27 -7 -56 -55 -56 -94
0 -18 -4 -23 -16 -18 -12 4 -15 2 -11 -9 7 -18 -9 -30 -17 -13 -3 10 -8 8 -16
-4 -6 -9 -16 -23 -24 -30 -7 -8 -16 -23 -20 -34 -7 -22 -72 -61 -84 -50 -4 4
-7 27 -7 52 -1 40 2 44 28 50 35 7 67 41 67 71 0 17 4 21 18 16 9 -4 20 -11
24 -17 5 -7 8 -4 8 7 0 9 7 17 15 17 8 0 15 7 15 15 0 8 -7 15 -15 15 -18 0
-20 16 -3 26 7 5 8 3 3 -7 -7 -12 -6 -12 9 0 10 9 15 23 12 34 -7 29 3 45 26
39 23 -6 40 15 32 40 -4 15 -1 17 24 12 17 -3 38 -2 48 4 11 6 27 7 40 2 27
-11 38 -2 22 17 -9 11 -9 16 2 23 8 5 18 6 22 4 4 -3 8 0 8 5 0 6 5 11 12 11
9 0 9 -3 0 -12z m1660 -16 c17 -7 17 -8 -1 -19 -16 -10 -20 -9 -24 8 -5 20 -2
22 25 11z m1505 2 c-3 -3 -12 -4 -19 -1 -8 3 -5 6 6 6 11 1 17 -2 13 -5z
m-3377 -18 c0 -8 -4 -17 -9 -21 -12 -7 -24 12 -16 25 9 15 25 12 25 -4z m310
-6 c0 -5 -5 -10 -11 -10 -5 0 -7 5 -4 10 3 6 8 10 11 10 2 0 4 -4 4 -10z
m2970 -30 c-9 -17 -8 -20 10 -20 11 0 20 -7 20 -16 0 -8 -5 -12 -11 -9 -6 4
-17 -1 -24 -11 -10 -13 -14 -15 -15 -5 0 9 -8 11 -25 7 -26 -7 -26 -6 -9 19 9
14 20 25 25 25 5 0 9 7 9 15 0 8 7 15 15 15 13 0 14 -4 5 -20z m-796 4 c22 -8
20 -24 -3 -24 -12 0 -21 -9 -25 -24 -4 -16 -15 -25 -33 -29 -16 -3 -29 -4 -31
-2 -7 7 19 45 27 40 5 -2 17 7 27 20 10 14 20 25 21 25 1 0 8 -3 17 -6z m1356
2 c0 -2 -7 -7 -16 -10 -8 -3 -12 -2 -9 4 6 10 25 14 25 6z m84 -13 c-5 -5 -12
-12 -16 -18 -4 -6 -8 -2 -8 8 0 9 7 17 17 17 9 0 12 -3 7 -7z m-4264 -28 c0
-8 9 -15 20 -15 11 0 20 -4 20 -10 0 -5 -7 -10 -15 -10 -8 0 -15 -4 -15 -10 0
-5 7 -7 15 -4 8 4 15 2 15 -4 0 -18 -71 -25 -88 -9 -12 13 -12 16 7 22 14 4
21 15 21 31 0 13 5 24 10 24 6 0 10 -7 10 -15z m3560 5 c0 -5 -5 -10 -11 -10
-5 0 -7 5 -4 10 3 6 8 10 11 10 2 0 4 -4 4 -10z m-1730 -10 c0 -5 -5 -10 -11
-10 -5 0 -7 5 -4 10 3 6 8 10 11 10 2 0 4 -4 4 -10z m60 -20 c0 -18 -3 -19
-20 -10 -11 6 -20 15 -20 20 0 6 9 10 20 10 13 0 20 -7 20 -20z m-50 -4 c0 -3
-4 -8 -10 -11 -5 -3 -10 -1 -10 4 0 6 5 11 10 11 6 0 10 -2 10 -4z m1715 -26
c3 -5 2 -10 -4 -10 -5 0 -13 5 -16 10 -3 6 -2 10 4 10 5 0 13 -4 16 -10z
m-825 -21 c0 -5 -4 -9 -10 -9 -5 0 -10 7 -10 16 0 8 5 12 10 9 6 -3 10 -10 10
-16z m-1700 1 c0 -5 -5 -10 -10 -10 -7 0 -7 -6 0 -19 14 -27 13 -34 -4 -28
-16 6 -26 -12 -26 -46 0 -18 -2 -19 -10 -7 -7 12 -10 12 -10 1 0 -7 -6 -11
-15 -7 -9 3 -20 -4 -29 -22 -8 -15 -23 -35 -34 -45 -11 -11 -18 -25 -15 -33 3
-8 -1 -14 -11 -14 -9 0 -16 6 -17 13 0 6 -5 0 -11 -16 -6 -17 -23 -33 -46 -43
-21 -9 -31 -18 -24 -21 21 -8 13 -23 -13 -23 -20 0 -25 -5 -25 -24 0 -18 -4
-23 -18 -19 -24 6 -49 -22 -27 -31 8 -3 15 -10 15 -16 0 -6 -5 -8 -10 -5 -18
11 -50 -6 -50 -26 0 -10 -6 -19 -13 -19 -8 0 -22 -9 -32 -20 -19 -21 -60 -27
-70 -10 -3 5 -11 7 -19 4 -22 -9 -14 27 13 55 34 36 79 63 91 56 5 -3 16 8 25
24 8 16 27 36 42 43 15 7 33 23 39 36 6 13 21 32 33 43 11 11 21 25 21 31 0 6
3 8 7 5 10 -11 33 13 33 34 0 11 6 19 14 19 8 0 16 7 20 15 3 8 11 15 18 15 7
0 21 13 30 30 9 17 29 32 45 36 15 4 36 18 46 31 19 23 47 31 47 13z m2590
-18 c0 -15 -2 -15 -10 -2 -13 20 -13 33 0 25 6 -3 10 -14 10 -23z m-1810 2 c0
-8 -5 -12 -10 -9 -6 4 -8 11 -5 16 9 14 15 11 15 -7z m1710 12 c0 -2 -7 -7
-16 -10 -8 -3 -12 -2 -9 4 6 10 25 14 25 6z m-3560 -21 c0 -16 -27 -32 -37
-21 -7 7 16 36 28 36 5 0 9 -7 9 -15z m2730 -20 c0 -14 0 -28 0 -32 0 -5 -13
-9 -30 -10 -19 -2 -29 1 -25 7 3 6 1 10 -4 10 -6 0 -11 -7 -11 -15 0 -8 -4
-15 -10 -15 -16 0 -12 27 5 34 8 3 22 2 32 -1 11 -4 14 -3 9 5 -7 12 12 41 27
42 4 0 7 -11 7 -25z m-3067 -5 c4 -14 0 -20 -12 -20 -25 0 -33 11 -20 27 16
18 26 16 32 -7z m4901 -74 c-11 -149 -13 -157 -38 -137 -8 7 -19 10 -24 7 -6
-3 -15 1 -22 9 -10 12 -10 18 1 32 12 14 12 17 0 21 -9 3 -3 9 16 17 31 13 42
44 43 120 1 28 2 29 15 11 10 -13 13 -36 9 -80z m-481 56 c-3 -12 -12 -22 -19
-22 -12 0 -11 5 2 25 19 30 26 28 17 -3z m-4121 -31 c3 -21 1 -28 -9 -24 -7 3
-13 0 -13 -6 0 -6 5 -11 10 -11 6 0 10 -9 10 -20 0 -23 -10 -26 -28 -8 -9 9
-15 9 -24 0 -19 -19 -38 -14 -38 11 1 14 16 33 43 54 23 17 43 32 43 32 1 1 4
-12 6 -28z m4228 -18 c0 -22 -21 -25 -40 -6 -18 20 -17 20 11 19 16 -1 29 -6
29 -13z m-1540 -3 c0 -5 -4 -10 -10 -10 -5 0 -10 5 -10 10 0 6 5 10 10 10 6 0
10 -4 10 -10z m1186 -27 c-10 -10 -19 5 -10 18 6 11 8 11 12 0 2 -7 1 -15 -2
-18z m-4361 -4 c5 -5 -1 -9 -17 -9 -36 0 -59 10 -52 22 7 11 53 2 69 -13z
m-100 -9 c-3 -6 1 -7 9 -4 9 3 24 3 34 -1 9 -5 22 -9 27 -9 22 -2 73 -36 79
-52 5 -13 2 -15 -13 -11 -14 3 -18 1 -14 -10 4 -11 1 -14 -8 -11 -8 3 -14 15
-13 27 0 11 -3 21 -8 21 -4 0 -8 -4 -8 -10 0 -5 -15 -10 -33 -10 -25 0 -39 7
-56 30 -21 29 -21 50 0 50 6 0 7 -4 4 -10z m3245 0 c8 -5 12 -12 8 -15 -10
-10 -49 5 -43 16 8 11 16 11 35 -1z m1380 1 c0 -5 3 -16 6 -25 4 -11 0 -16
-14 -16 -12 0 -24 -4 -27 -10 -3 -5 -12 -10 -18 -10 -8 0 -7 3 2 9 8 5 11 16
8 25 -4 9 1 20 11 25 22 13 32 14 32 2z m-4290 -11 c0 -5 -4 -10 -10 -10 -5 0
-10 5 -10 10 0 6 5 10 10 10 6 0 10 -4 10 -10z m50 -15 c-10 -12 -10 -15 4
-15 9 0 16 -5 16 -11 0 -13 42 -1 52 15 5 8 11 7 19 -1 19 -19 -5 -41 -39 -36
-15 2 -33 5 -39 5 -19 2 -46 35 -38 47 3 6 13 11 22 11 13 0 13 -3 3 -15z
m294 4 c12 18 23 13 30 -14 4 -15 14 -25 24 -25 26 0 43 -15 37 -32 -5 -11
-18 -14 -55 -11 -27 2 -51 -1 -54 -6 -7 -11 22 -36 43 -36 9 0 17 -10 19 -22
4 -29 22 -30 22 -1 0 17 3 19 12 10 8 -8 8 -15 -2 -27 -16 -19 -36 -19 -43 -1
-4 9 -14 12 -25 9 -14 -3 -22 1 -27 16 -8 27 -25 27 -32 0 -4 -14 -12 -19 -24
-16 -10 3 -27 -4 -39 -15 -12 -11 -28 -17 -38 -14 -15 5 -18 16 -16 57 3 62
16 80 54 73 15 -4 36 -1 47 5 10 6 13 11 7 11 -7 0 -14 9 -17 20 -6 22 3 26
20 9 8 -8 15 -7 24 4 9 9 16 11 20 5 4 -7 9 -6 13 1z m1771 -29 c3 -11 3 -25
-2 -32 -4 -7 -8 -17 -9 -23 0 -5 -2 -16 -2 -23 -1 -8 -9 -11 -21 -7 -11 3 -22
1 -26 -5 -9 -15 -22 -12 -29 6 -8 21 11 44 35 44 18 0 24 15 20 48 -3 20 27
14 34 -8z m745 -10 c0 -5 -4 -10 -10 -10 -5 0 -10 5 -10 10 0 6 5 10 10 10 6
0 10 -4 10 -10z m-2960 -25 c14 -8 23 -15 20 -15 -30 -7 -40 -7 -40 1 0 5 -7
9 -15 9 -8 0 -15 5 -15 10 0 14 20 12 50 -5z m2030 1 c0 -8 -7 -16 -15 -20 -8
-3 -15 -1 -15 4 0 6 5 10 11 10 5 0 7 5 4 10 -3 6 -1 10 4 10 6 0 11 -6 11
-14z m-1971 -9 c12 -15 5 -27 -15 -27 -7 0 -12 9 -11 20 2 23 10 25 26 7z
m4058 -9 c2 -18 0 -20 -7 -8 -12 18 -13 30 -2 30 4 0 9 -10 9 -22z m603 -9 c0
-6 -4 -7 -10 -4 -5 3 -10 11 -10 16 0 6 5 7 10 4 6 -3 10 -11 10 -16z m-4906
4 c4 -5 12 -9 17 -9 5 -1 14 -2 19 -3 16 -2 11 -21 -6 -21 -8 0 -13 -4 -10 -8
8 -13 69 -2 89 16 26 23 30 9 8 -31 -11 -19 -17 -38 -14 -41 4 -3 4 -6 0 -6
-3 0 -13 7 -21 16 -14 13 -18 13 -30 2 -10 -11 -11 -19 -4 -32 7 -13 7 -20 0
-25 -6 -3 -15 -19 -21 -34 -12 -31 -26 -35 -35 -10 -5 13 -9 14 -15 5 -4 -7
-19 -14 -33 -16 -14 -1 -40 -15 -58 -29 -36 -30 -41 -32 -58 -15 -6 6 -15 8
-19 4 -4 -4 -2 -11 6 -15 10 -6 9 -10 -4 -15 -9 -3 -22 0 -30 7 -20 18 18 79
67 107 33 19 39 26 34 46 -7 28 -1 30 21 9 19 -20 35 -15 48 13 13 30 41 24
37 -7 -3 -16 1 -22 10 -18 7 2 11 11 9 18 -2 8 -4 20 -4 27 0 6 -6 12 -12 12
-7 0 -12 13 -11 30 1 30 6 36 20 23z m86 -13 c8 -5 11 -12 8 -16 -4 -3 -14 1
-23 10 -18 17 -9 21 15 6z m4191 -35 c5 3 6 -1 3 -10 -5 -12 -10 -13 -20 -4
-7 6 -18 8 -25 4 -8 -5 -7 -1 1 15 11 21 13 21 22 6 5 -9 13 -14 19 -11z
m-2122 -21 c16 -35 2 -49 -46 -48 -25 1 -38 6 -38 15 0 8 8 13 18 13 9 -1 17
4 17 12 0 8 8 14 18 14 14 0 15 2 2 10 -13 8 -13 10 1 10 9 0 21 -12 28 -26z
m-117 -28 c-3 -5 -9 -1 -13 10 -12 31 -10 39 5 19 8 -11 12 -24 8 -29z m2749
25 c-7 -5 -10 -14 -7 -20 4 -6 2 -11 -3 -11 -6 0 -11 9 -11 20 0 12 7 20 18
20 13 0 14 -2 3 -9z m-4621 -9 c0 -13 -12 -22 -22 -16 -10 6 -1 24 13 24 5 0
9 -4 9 -8z m1456 -7 c12 -4 13 -7 2 -18 -7 -8 -19 -14 -27 -13 -8 1 -20 -9
-27 -22 -6 -13 -20 -31 -30 -41 -20 -18 -54 -24 -54 -9 0 4 -5 8 -10 8 -6 0
-9 -12 -8 -27 2 -18 -1 -27 -9 -26 -7 2 -10 -4 -7 -12 4 -8 1 -15 -5 -15 -6 0
-11 -7 -11 -15 0 -9 -6 -12 -15 -9 -8 4 -15 12 -15 20 0 22 34 83 47 84 14 0
73 58 73 71 0 5 6 9 14 9 7 0 19 6 26 14 6 8 18 13 26 10 8 -2 21 -6 30 -9z
m2804 11 c0 -3 -4 -8 -10 -11 -5 -3 -10 -1 -10 4 0 6 5 11 10 11 6 0 10 -2 10
-4z m50 -16 c0 -5 -4 -10 -10 -10 -5 0 -10 5 -10 10 0 6 5 10 10 10 6 0 10 -4
10 -10z m-2177 -22 c8 -27 1 -37 -31 -49 -28 -11 -42 1 -42 38 0 16 5 20 19
16 10 -3 22 0 25 6 11 17 23 13 29 -11z m-2739 -4 c9 -23 7 -34 -5 -34 -5 0
-8 4 -4 9 3 5 1 12 -5 16 -12 8 -13 25 -1 25 5 0 12 -7 15 -16z m2394 -26 c14
-54 8 -61 -12 -13 -18 43 -20 55 -7 55 5 0 13 -19 19 -42z m-1768 -8 c5 0 10
5 10 10 0 22 16 8 18 -16 2 -23 -26 -71 -66 -113 -12 -12 -15 -12 -22 -1 -5 9
-8 1 -7 -20 2 -29 -2 -34 -28 -41 -17 -5 -32 -4 -35 1 -3 5 -14 -4 -24 -20
-18 -31 -24 -34 -51 -24 -14 6 -14 9 0 30 10 15 13 33 9 51 -6 21 -4 25 9 20
8 -3 23 0 33 8 16 11 16 17 6 39 -9 21 -9 26 1 26 7 0 13 10 14 22 2 27 19 38
61 38 21 0 35 6 39 17 5 14 8 13 14 -5 5 -12 13 -22 19 -22z m1806 25 c-10 -8
-24 -11 -29 -8 -6 4 -2 10 9 14 31 12 40 9 20 -6z m2194 -9 c0 -6 -10 -20 -22
-30 -17 -15 -20 -15 -15 -3 3 9 1 18 -6 20 -9 3 -9 8 1 20 14 17 42 13 42 -7z
m921 -26 c14 -45 14 -53 0 -85 -14 -30 -18 -33 -34 -21 -10 8 -22 28 -27 46
-8 28 -7 30 6 19 12 -10 18 -9 30 2 13 14 13 20 -1 52 -12 29 -13 37 -2 37 7
0 20 -23 28 -50z m-5446 22 c0 -18 -20 -15 -23 4 -3 10 1 15 10 12 7 -3 13
-10 13 -16z m4670 -22 c3 -5 1 -10 -4 -10 -6 0 -11 5 -11 10 0 6 2 10 4 10 3
0 8 -4 11 -10z m75 -1 c0 6 6 11 13 11 7 0 13 -9 13 -20 0 -10 -2 -17 -4 -15
-3 2 -13 -7 -24 -20 -32 -41 -63 -12 -37 36 8 16 13 18 25 8 10 -8 14 -8 14 0z
m63 -3 c3 -8 -4 -35 -16 -60 -20 -45 -40 -58 -50 -33 -3 6 -6 2 -6 -10 -1 -29
-21 -31 -21 -3 0 24 45 70 68 70 10 0 13 8 10 25 -6 26 6 35 15 11z m261 -1
c-4 -8 -11 -12 -16 -9 -6 4 -5 10 3 15 19 12 19 11 13 -6z m-4014 -10 c-7 -8
-16 -12 -21 -9 -13 8 -1 24 18 24 13 0 13 -3 3 -15z m1204 -30 c-7 -39 1 -44
25 -17 9 10 24 22 35 25 17 7 18 6 3 -16 -14 -22 -14 -26 0 -40 23 -23 8 -36
-37 -32 -22 2 -40 -1 -40 -6 0 -5 -5 -9 -11 -9 -5 0 -7 5 -4 10 3 6 1 10 -4
10 -6 0 -11 -10 -11 -23 0 -14 -6 -24 -15 -24 -9 0 -15 10 -15 23 0 12 -3 30
-6 38 -5 12 -2 15 10 10 11 -4 16 -1 16 10 0 9 4 16 9 16 5 0 14 14 20 30 14
43 34 39 25 -5z m-1361 1 c-2 -3 -3 -14 -4 -23 0 -11 -3 -13 -6 -5 -2 6 -9 9
-14 6 -12 -7 -41 15 -34 26 6 10 61 6 58 -4z m2097 4 c0 -5 -4 -10 -10 -10 -5
0 -10 5 -10 10 0 6 5 10 10 10 6 0 10 -4 10 -10z m-10 -33 c0 -20 -33 -47 -57
-47 -17 0 -23 -6 -23 -22 -1 -21 -2 -21 -11 -5 -8 14 -4 27 17 61 25 40 30 43
51 33 13 -5 23 -15 23 -20z m-2030 9 c0 -3 -4 -8 -10 -11 -5 -3 -10 -1 -10 4
0 6 5 11 10 11 6 0 10 -2 10 -4z m3720 -16 c0 -5 -8 -10 -17 -10 -15 0 -16 2
-3 10 19 12 20 12 20 0z m-3641 -14 c16 -10 4 -26 -15 -19 -12 4 -13 1 -5 -20
17 -45 -43 -68 -72 -27 -16 22 -42 19 -51 -7 -9 -22 0 -28 18 -14 10 8 16 9
21 1 3 -5 3 -10 -2 -10 -4 0 -18 -3 -30 -6 -19 -5 -23 -2 -23 15 0 11 -3 20
-7 19 -9 -3 -13 5 -13 27 0 8 9 14 23 13 38 -2 47 2 47 16 0 8 8 16 18 19 24
6 77 2 91 -7z m1127 -24 c-7 -52 -17 -70 -36 -65 -16 4 -17 8 -7 23 6 10 14
17 18 14 10 -6 21 45 13 58 -4 7 -3 8 4 4 7 -4 10 -19 8 -34z m-2066 4 c0 -3
-4 -8 -10 -11 -5 -3 -10 -1 -10 4 0 6 5 11 10 11 6 0 10 -2 10 -4z m3203 -18
c5 -19 8 -20 23 -7 15 12 16 12 10 -9 -5 -15 -3 -22 6 -23 7 0 0 -6 -16 -14
-20 -8 -40 -10 -59 -4 -39 11 -40 13 -33 46 5 22 13 28 35 30 22 2 30 -3 34
-19z m-3079 -32 c-8 -20 -31 -21 -31 -1 0 9 6 14 14 11 7 -3 13 0 13 6 0 6 2
9 5 6 3 -3 3 -13 -1 -22z m836 4 c0 -5 -5 -10 -11 -10 -5 0 -7 5 -4 10 3 6 8
10 11 10 2 0 4 -4 4 -10z m3837 -23 c-2 -7 -11 -13 -20 -15 -13 -3 -16 3 -15
21 2 21 5 24 21 16 10 -6 16 -16 14 -22z m-2722 13 c3 -5 1 -10 -4 -10 -6 0
-11 5 -11 10 0 6 2 10 4 10 3 0 8 -4 11 -10z m-1875 -15 c0 -8 -4 -15 -9 -15
-13 0 -22 16 -14 24 11 11 23 6 23 -9z m2571 -6 c9 -17 8 -23 -2 -30 -22 -14
-26 -11 -21 21 5 36 8 37 23 9z m2563 -5 c5 -18 2 -32 -9 -44 -8 -9 -13 -24
-10 -33 8 -19 -14 -34 -25 -17 -8 13 5 65 22 87 5 7 7 17 3 23 -3 5 -2 10 3
10 6 0 13 -12 16 -26z m-5164 -8 c0 -11 -19 -15 -25 -6 -3 5 1 10 9 10 9 0 16
-2 16 -4z m4550 -16 c0 -12 -26 -30 -33 -23 -4 3 -7 14 -7 24 0 12 6 16 20 12
11 -3 20 -9 20 -13z m-2075 -50 c3 -5 1 -10 -4 -10 -6 0 -11 5 -11 10 0 6 2
10 4 10 3 0 8 -4 11 -10z m2055 2 c0 -10 -41 -35 -47 -28 -7 7 20 35 35 36 6
0 12 -3 12 -8z m-2788 -34 c-7 -7 -12 -8 -12 -2 0 14 12 26 19 19 2 -3 -1 -11
-7 -17z m2713 12 c13 -6 15 -9 5 -9 -8 0 -22 4 -30 9 -18 12 -2 12 25 0z m31
-93 c8 -24 28 -47 42 -47 6 0 12 -7 16 -15 7 -18 36 -20 36 -2 0 7 5 5 11 -5
5 -10 16 -15 24 -12 8 4 15 1 15 -5 0 -7 -6 -14 -14 -17 -8 -3 -16 -13 -19
-23 -3 -13 -17 -20 -48 -23 -75 -8 -243 -2 -265 10 -15 8 -73 10 -184 7 -106
-3 -168 -1 -176 6 -9 7 -19 7 -33 0 -13 -7 -22 -8 -26 -1 -11 17 6 32 32 27
13 -2 30 1 36 7 23 20 76 56 84 56 5 0 17 14 26 30 11 17 27 30 38 30 11 0 17
-4 14 -10 -3 -5 0 -11 7 -12 45 -5 79 -18 73 -27 -2 -4 7 -14 20 -21 19 -10
22 -16 14 -27 -9 -10 -8 -13 2 -13 8 0 24 -3 37 -6 16 -5 22 -2 22 10 0 17 10
17 71 1 33 -8 58 17 39 40 -11 13 -10 18 5 29 10 7 15 18 11 24 -4 7 -3 12 3
12 5 0 13 -4 16 -10 9 -15 25 -12 19 4 -4 10 2 12 20 9 14 -3 28 -14 32 -26z
m644 3 c0 -10 -6 -21 -12 -24 -10 -5 -10 -7 0 -12 6 -3 12 -12 12 -19 0 -7 -6
-15 -12 -18 -10 -3 -10 -7 -1 -19 11 -13 6 -18 -30 -36 -36 -18 -59 -21 -168
-20 -109 1 -126 3 -124 17 1 8 10 18 21 22 10 3 29 9 42 14 12 4 22 14 22 21
0 8 5 14 10 14 6 0 10 -5 10 -11 0 -7 14 -10 35 -7 19 2 36 0 38 -5 1 -5 11
-2 20 8 11 10 26 15 39 12 25 -7 58 8 58 27 0 8 7 19 15 26 9 7 14 19 11 27
-3 8 -1 11 4 8 6 -3 10 -15 10 -25z m-756 5 c3 -10 -1 -15 -14 -15 -20 0 -33
13 -23 24 11 11 31 6 37 -9z m-634 -88 c0 17 82 3 97 -16 9 -13 8 -17 -10 -24
-30 -11 -105 2 -111 20 -8 21 4 39 15 22 5 -9 9 -10 9 -2z m956 -38 c3 -5 21
-9 39 -9 26 0 33 -4 29 -14 -4 -10 -19 -15 -44 -14 -21 0 -43 -3 -49 -6 -16
-10 -61 5 -61 20 0 8 6 11 15 8 9 -4 15 0 15 9 0 16 46 21 56 6z"/>
<path d="M2975 6000 c3 -5 8 -10 11 -10 2 0 4 5 4 10 0 6 -5 10 -11 10 -5 0
-7 -4 -4 -10z"/>
<path d="M2804 5970 c-7 -7 -10 -20 -7 -30 4 -15 8 -16 29 -6 25 12 34 42 10
33 -8 -3 -16 -1 -18 4 -2 6 -8 5 -14 -1z"/>
<path d="M6201 5961 c-11 -11 -22 -17 -25 -13 -3 3 -6 -1 -6 -9 0 -8 -3 -24
-6 -36 -5 -18 -2 -23 11 -23 10 0 23 -7 30 -17 10 -13 17 -14 44 -5 17 6 29 7
26 2 -3 -5 -1 -11 4 -14 10 -7 27 32 22 49 -1 6 7 0 19 -13 13 -14 19 -30 15
-41 -7 -22 12 -39 52 -47 33 -7 55 12 32 27 -13 8 -6 13 13 10 4 0 5 6 2 14
-4 8 -11 15 -16 15 -6 0 -6 6 1 14 8 9 8 16 2 20 -5 4 -12 2 -16 -4 -3 -5 -15
-10 -26 -10 -14 0 -19 7 -19 25 0 27 -18 33 -39 13 -11 -10 -14 -10 -18 0 -3
6 -11 12 -19 12 -8 0 -17 7 -20 15 -6 14 -8 13 -19 -2 -12 -16 -13 -15 -8 10
6 32 -9 35 -36 8z"/>
<path d="M2135 5960 c3 -5 14 -10 23 -10 15 0 15 2 2 10 -20 13 -33 13 -25 0z"/>
<path d="M5770 5876 c0 -15 24 -28 34 -19 7 7 -13 33 -25 33 -5 0 -9 -6 -9
-14z"/>
<path d="M6206 5811 c-4 -6 -3 -18 2 -27 8 -15 10 -14 16 2 8 20 -8 42 -18 25z"/>
<path d="M6330 5790 c0 -5 10 -15 23 -21 22 -12 22 -12 3 10 -21 23 -26 26
-26 11z"/>
<path d="M6282 5768 c16 -23 62 -35 55 -14 -2 6 -11 10 -21 8 -9 -2 -16 1 -16
6 0 6 -7 13 -16 16 -15 6 -15 4 -2 -16z"/>
<path d="M6190 5720 c0 -5 5 -10 10 -10 6 0 10 5 10 10 0 6 -4 10 -10 10 -5 0
-10 -4 -10 -10z"/>
<path d="M6477 5534 c-4 -4 -7 -11 -7 -15 0 -10 24 -5 28 6 4 12 -12 18 -21 9z"/>
<path d="M979 4033 c-13 -16 -12 -17 4 -4 9 7 17 15 17 17 0 8 -8 3 -21 -13z"/>
<path d="M3950 5880 c0 -5 -9 -19 -20 -30 -11 -11 -15 -22 -10 -25 6 -4 10 -1
10 4 0 6 6 11 14 11 7 0 19 7 26 15 11 13 10 14 -6 8 -17 -6 -17 -5 -5 10 9
11 10 17 2 17 -6 0 -11 -4 -11 -10z"/>
<path d="M1460 5200 c0 -5 5 -10 10 -10 6 0 10 5 10 10 0 6 -4 10 -10 10 -5 0
-10 -4 -10 -10z"/>
<path d="M6487 5043 c-10 -10 -8 -43 2 -43 9 0 21 24 21 41 0 11 -14 12 -23 2z"/>
<path d="M6005 4709 c-4 -6 -5 -13 -2 -16 7 -7 27 6 27 18 0 12 -17 12 -25 -2z"/>
<path d="M6155 4670 c3 -5 11 -10 16 -10 6 0 7 5 4 10 -3 6 -11 10 -16 10 -6
0 -7 -4 -4 -10z"/>
<path d="M1108 5103 c7 -3 16 -2 19 1 4 3 -2 6 -13 5 -11 0 -14 -3 -6 -6z"/>
<path d="M3291 4400 c-25 -17 -55 -33 -68 -36 -13 -4 -23 -10 -23 -15 0 -5 -4
-9 -9 -9 -5 0 -30 -9 -55 -20 l-47 -20 31 -52 c18 -29 34 -61 37 -70 6 -19 57
-25 68 -9 3 6 18 16 33 24 27 13 29 12 68 -32 21 -25 53 -72 70 -106 16 -33
45 -87 63 -120 19 -33 41 -73 49 -90 9 -16 20 -33 25 -36 6 -4 7 -14 4 -22 -4
-12 -14 -13 -49 -7 -67 13 -98 31 -112 64 -14 35 -63 67 -74 49 -4 -6 -25 -20
-47 -32 -22 -12 -51 -28 -65 -36 -14 -7 -63 -24 -110 -37 -90 -25 -100 -36
-86 -92 6 -26 84 -56 131 -51 27 3 104 32 147 55 11 6 31 2 65 -14 59 -29 182
-46 236 -34 33 7 42 6 53 -9 7 -10 14 -25 14 -34 0 -9 6 -19 14 -22 7 -3 16
-22 20 -41 8 -42 17 -43 71 -12 50 29 54 52 20 121 l-27 53 52 53 c29 30 65
81 81 114 66 141 81 326 31 382 -29 32 -112 85 -126 80 -15 -6 -8 -67 12 -102
43 -77 44 -85 18 -189 -23 -90 -29 -101 -75 -147 -27 -27 -54 -49 -59 -49 -6
0 -23 21 -38 48 -15 26 -30 49 -34 52 -4 3 -11 16 -15 30 -4 14 -44 85 -87
158 -44 73 -79 135 -77 136 16 14 73 36 92 36 50 0 60 55 14 78 -36 18 -128
42 -161 42 -18 0 -50 -13 -75 -30z"/>
<path d="M1425 3970 c-3 -5 -2 -10 4 -10 5 0 13 5 16 10 3 6 2 10 -4 10 -5 0
-13 -4 -16 -10z"/>
<path d="M1166 3797 c3 -10 9 -15 12 -12 3 3 0 11 -7 18 -10 9 -11 8 -5 -6z"/>
<path d="M1135 3010 c-3 -5 -1 -10 4 -10 6 0 11 5 11 10 0 6 -2 10 -4 10 -3 0
-8 -4 -11 -10z"/>
<path d="M1172 2988 c-7 -7 -12 -16 -12 -21 0 -5 7 -1 16 8 9 9 14 18 12 20
-2 3 -10 -1 -16 -7z"/>
<path d="M630 2324 c0 -8 5 -12 10 -9 6 3 10 10 10 16 0 5 -4 9 -10 9 -5 0
-10 -7 -10 -16z"/>
<path d="M3210 2064 c0 -10 31 -36 37 -31 10 10 -6 37 -22 37 -8 0 -15 -3 -15
-6z"/>
<path d="M3180 2040 c0 -7 24 -20 36 -20 13 0 1 19 -16 23 -11 3 -20 2 -20 -3z"/>
<path d="M816 2014 c-5 -14 -4 -15 9 -4 17 14 19 20 6 20 -5 0 -12 -7 -15 -16z"/>
<path d="M3107 2006 c-4 -10 1 -12 14 -9 23 6 24 9 5 16 -8 3 -17 0 -19 -7z"/>
<path d="M2425 2340 c-3 -5 -1 -10 4 -10 6 0 11 5 11 10 0 6 -2 10 -4 10 -3 0
-8 -4 -11 -10z"/>
<path d="M2370 2304 c0 -8 5 -12 10 -9 6 3 10 10 10 16 0 5 -4 9 -10 9 -5 0
-10 -7 -10 -16z"/>
<path d="M1694 2515 c-8 -21 4 -35 29 -34 18 1 19 2 4 6 -13 3 -17 11 -14 24
6 22 -11 26 -19 4z"/>
<path d="M1821 2251 c-8 -5 -8 -12 2 -25 11 -15 15 -15 24 -4 13 16 -8 40 -26
29z"/>
<path d="M5645 1890 c3 -5 8 -10 11 -10 2 0 4 5 4 10 0 6 -5 10 -11 10 -5 0
-7 -4 -4 -10z"/>
<path d="M5435 1870 c3 -5 11 -10 16 -10 6 0 7 5 4 10 -3 6 -11 10 -16 10 -6
0 -7 -4 -4 -10z"/>
<path d="M5675 1860 c-3 -5 1 -10 9 -10 8 0 18 5 21 10 3 6 -1 10 -9 10 -8 0
-18 -4 -21 -10z"/>
</g>
</svg>
